<?xml version="1.0" encoding="utf-8" ?>
<svg baseProfile="full" height="300mm" version="1.1" viewBox="0,0,200,300" width="200mm" xmlns="http://www.w3.org/2000/svg" xmlns:ev="http://www.w3.org/2001/xml-events" xmlns:xlink="http://www.w3.org/1999/xlink"><defs /><rect fill="#222222" height="300" width="200" x="0" y="0" /><text fill="#FFFFFF" style="font-size:12px; font-family:Arial; font-weight:bold;" x="10" y="20">Over 5km Workouts</text><text fill="#FFFFFF" style="font-size:4px; font-family:Arial" x="10" y="280">ATHLETE</text><text fill="#FFFFFF" style="font-size:9px; font-family:Arial" x="10" y="290">xxcol</text><text fill="#FFFFFF" style="font-size:4px; font-family:Arial" x="120" y="280">STATISTICS</text><text fill="#FFFFFF" style="font-size:3px; font-family:Arial" x="120" y="285">Number: 15</text><text fill="#FFFFFF" style="font-size:3px; font-family:Arial" x="120" y="290">Weekly: 5.0</text><text fill="#FFFFFF" style="font-size:3px; font-family:Arial" x="141" y="285">Total: 148.7 km</text><text fill="#FFFFFF" style="font-size:3px; font-family:Arial" x="141" y="290">Avg: 9.9 km</text><text fill="#FFFFFF" style="font-size:3px; font-family:Arial" x="167" y="285">Min: 9.1 km</text><text fill="#FFFFFF" style="font-size:3px; font-family:Arial" x="167" y="290">Max: 13.2 km</text><polyline fill="none" points="55.59999999997672,59.14412313156208 54.58617992178188,58.55455237090791 54.19191655801842,58.43257174919563 46.82607561929035,58.54099897635024 46.707170795300044,58.69008620830573 46.57574967405526,60.01153082335077 46.23155149933882,60.052190361391695 45.03624511079397,61.05512003455806 41.957235984358704,61.02801396865107 40.10482398956083,60.84504781826399 39.21616688393988,60.939919200201984 37.88943937417935,61.319403765119205 35.42372881353367,62.83732661994145 33.965580182528356,63.609831466688775 33.5087353324634,63.67759474521881 33.346023468038766,63.562397142493865 33.05814863104024,63.06772347029619 32.94550195566262,62.62048200680874 32.97053455017158,61.990274494826735 32.613820078229764,61.360062734289386 31.700130378099857,60.54010343841219 31.46232073009014,60.49266755658755 29.32203389829374,58.202163473833934 29.134289439360145,58.28348410646868 28.9778357235773,58.20894019593106 25.379400260717375,55.233911954113864 24.747327249031514,54.47489186224266 24.484485006483737,53.66164920749725 24.18409387220163,53.38378967808967 24.09647979136207,52.97716448709252 23.62086049542995,52.86873080392252 23.30169491522247,52.665417308824544 19.740808344155084,48.74815758110344 19.396610169496853,48.52450284710358 18.670664928271435,47.751873281784356 18.58305084746098,47.72476335641841 18.470404172083363,47.98230732973752 18.351499348093057,47.94164253906638 17.306388526718365,46.362479473798885 17.018513689690735,46.20659497647284 16.63676662321086,46.450587987637846 15.141069100354798,44.86462202024268 13.651629726198735,45.5220556255008 12.875619295926299,45.38650268359197 12.662842242483748,44.49184833219624 12.39999999999418,44.322405254788464" stroke="#4dd2ff" stroke-linecap="round" stroke-linejoin="round" stroke-width="0.5"><title>2022-10-31 9.2km</title></polyline><polyline fill="none" points="78.39999999999418,44.69795786393661 80.1161561057379,44.743769326210895 80.25514057910186,45.60763825720642 80.80503566935658,45.751615607747226 81.14947545112227,45.74507118770998 82.52723457827233,45.11026018649136 83.94729332774295,46.66128537173063 84.31590432228404,46.43223269842565 84.55157364666229,46.54348692669737 84.7026437263994,46.831438409550174 85.57885018884554,47.62330024660332 85.57280738567351,47.77381865232746 86.9082668904739,48.86670562977815 90.38287872431101,52.66225814464269 90.64271926143556,52.84548767342494 91.16844313891488,53.0025412590403 91.2469995803549,53.37554242910119 91.53705413345597,53.65038440972421 91.77876626103534,54.42255501759064 92.35887536720838,55.116194166337664 95.86974402013584,58.015024599917524 96.31691145614604,58.04774224491848 98.28082249267027,60.23325407264929 99.36248426351813,61.06425815603143 99.71900965171517,61.67932711755566 99.7008812421409,62.353280848394206 99.79152328998316,62.71970018274442 100.1963911036728,63.282412693224614 100.48040285354364,63.30204213607067 100.86109945445787,63.12537699662789 102.75853965588612,62.071922135713976 104.35383969786926,61.03154160451959 105.47175828786567,60.67820209247293 106.6198908938386,60.547335255512735 109.08535459506675,60.75672210357152 111.38161980698351,60.74363543980144 112.51162400335306,59.74250003638008 112.85002098194673,59.76213024905155 112.95879143936327,58.47307055068086 113.1159043223015,58.32911350237555 120.04095677720034,58.19169974205579 120.49416701638256,58.289852449343016 121.60000000000582,58.90494031779963" stroke="#4dd2ff" stroke-linecap="round" stroke-linejoin="round" stroke-width="0.5"><title>2022-10-31 9.4km</title></polyline><polyline fill="none" points="187.60000000000582,59.141220910460106 186.46940427995287,58.51893838575779 186.06963562752935,58.43777079388383 178.8862926547299,58.566286115055846 178.71764025450102,58.735384952116874 178.59271255059866,60.02052609706152 178.24291497978265,60.054345361822925 177.8993637941021,60.43312028946821 177.07484094850952,61.0689176038577 174.69496818972402,61.0689176038577 172.1339502602932,60.845712657239346 171.228224407183,60.94716951734881 169.64164256796357,61.45445216308144 167.4241758241551,62.86130160329776 165.9312897628697,63.64588150109921 165.5315211104753,63.67293586268352 165.3628687102464,63.551191173814004 165.0755349913088,62.989810831415525 164.98183921343298,62.65162827219319 165.00057836898486,61.982023188931635 164.66327356852707,61.373287125112256 163.7388085598359,60.5345775982496 163.51393869289313,60.49399468796764 161.49635627531097,58.32954722822615 161.34644303063396,58.22808752137644 161.09658762291656,58.2686714173542 157.35500289185438,55.136895552692295 156.80532099478296,54.460472269951424 156.55546558706556,53.648757854687574 156.2618854829343,53.364656140242005 156.1619433198357,53.00614559870155 155.65598611911992,52.87085824371752 155.34366685946588,52.64763367888372 151.80821283979458,48.778322978258075 150.87125506071607,47.93273544846306 150.69010989009985,47.38479063385603 149.5907460960152,46.64066288926551 149.2409485251701,46.28889134226483 149.0910352805222,46.24153737878805 148.71625216887332,46.47830695560697 147.23585887794616,44.908851684303954 145.76795835743542,45.531225039900164 144.96217466745293,45.40945666687912 144.75604395603295,44.509718758272356 144.39999999999418,44.4826588370197 144.48744939270546,44.32706413731648" stroke="#4dd2ff" stroke-linecap="round" stroke-linejoin="round" stroke-width="0.5"><title>2022-10-28 9.2km</title></polyline><polyline fill="none" points="12.39999999999418,92.6908431300908 13.998206278018188,92.71706880489364 14.179820627789013,93.60873721814278 14.906278026872315,93.75297686974955 16.456053811620222,93.11700940229639 17.872645739873406,94.66430388972367 18.30852017935831,94.4545028004286 19.343721973069478,95.51661580500513 19.48901345289778,95.57562171692553 19.676681614335394,95.46416607315768 20.263901345286286,96.34269506524288 22.055829596414696,98.14561960216088 24.326008968579117,100.68276520426298 24.604484304902144,100.8728843574354 25.088789237634046,101.01055659801204 25.191704035853036,101.39734891356784 25.494394618814113,101.67924735497945 25.706278026889777,102.41349033084407 26.245067264564568,103.08872637431341 28.71502242150018,105.05540455730079 29.7744394618785,106.01250579558837 29.943946188344853,106.10428209427482 30.252690582943615,106.05183850643516 32.117264573986176,108.14955829336395 33.3159192824678,109.11973723577103 33.618609865457984,109.53271565413888 33.739686098648235,110.75852937612217 34.163452914799564,111.3091568699092 34.64170403586468,111.23705107934802 36.7181614349538,110.10301608371083 37.88049327355111,109.27706256991951 39.375784753327025,108.68053589594638 40.586547085200436,108.56254114260082 41.05269058293197,108.66742537540267 43.153363228659146,108.79853049531812 45.344843049300835,108.77886473944818 46.48901345289778,107.78246084386774 46.80986547083012,107.77590551873436 46.94910313899163,106.51071886863065 47.10650224212441,106.36649957718328 54.177354260056745,106.23539093079307 54.51636771298945,106.33372243341728 55.59999999997672,106.93026459022076" stroke="#4dd2ff" stroke-linecap="round" stroke-linejoin="round" stroke-width="0.5"><title>2022-10-28 9.4km</title></polyline><polyline fill="none" points="121.59999999997672,106.90145275960822 120.52227049754583,106.33105209648784 120.06817098805914,106.23926314793789 113.14163980379817,106.36383384122746 113.02054660124122,106.49496070141322 112.87523475821945,107.77343762349483 112.54828311142046,107.81277508830681 111.41606166784186,108.77653763129638 109.09107217937708,108.78964997603907 106.62682550805039,108.57985223217838 105.72468114923686,108.68475116494665 104.8407007708447,108.90766099306347 104.24128941833624,109.16990714627173 101.87391730904346,110.62535947537981 100.59638402241399,111.28096098165406 100.22099509456893,111.30718494307075 100.06962859144551,111.1957330545556 99.8153328661574,110.723700004266 99.70029432373121,110.31722512585111 99.70634898386197,109.64194830579072 99.36123335667071,109.05845262408548 98.49541695864173,108.29137953971076 98.24112123335362,108.20614879537607 96.30968465312617,106.12124864859652 96.14620882971212,106.01634674212983 95.88585844429326,106.04257223014429 92.33177295021596,103.08560053160909 91.76868955849204,102.39715643418458 91.51439383323304,101.60380006739433 91.22982480726205,101.36120210235094 91.11478626489406,100.94157165273646 90.63646811494255,100.82355023778655 90.38217238959624,100.65307458859752 86.90679747721879,96.86318674196082 85.91988787666196,96.0304392223843 85.71402943236171,96.01732502684172 85.53238962855539,95.59766976455285 84.66657323055551,94.78458214757848 84.55758934828918,94.54852308188856 84.2851296425797,94.41082167543937 83.9036860546621,94.63376670452999 82.50505956553388,93.1255984283489 80.94901191309327,93.72886875979748 80.2527259986091,93.58460882960208 80.05897687454126,92.69281505693652 78.39999999999418,92.70592973502062" stroke="#4dd2ff" stroke-linecap="round" stroke-linejoin="round" stroke-width="0.5"><title>2022-10-27 9.4km</title></polyline><polyline fill="none" points="144.39999999999418,92.70647126137919 146.03178511472652,92.71956208601478 146.26144376047887,93.62936974290642 147.01085618353682,93.76682190018619 148.52176832678379,93.1319220893638 149.92993844431476,94.68316426189995 150.3711247901374,94.46717011526198 151.5012870733044,95.61913292010286 151.73698936766596,95.51440963671484 151.90621152770473,95.5994973137349 152.6435366536025,96.66635906675947 155.08517067710636,99.20583198570966 156.36642417460098,100.66534206276265 156.6686066032562,100.88132136920467 157.14605484053027,101.02530728629063 157.224622271955,101.40490542083717 157.52076105203014,101.66669630732213 157.7504196978407,102.41279616688553 158.3064353665104,103.09998794834974 160.76015668717446,105.05027517080453 161.80570789030753,105.99922518766107 161.98701734750648,106.0908474197422 162.16832680467633,106.01231408365129 164.25942921097158,108.24394310086791 165.34728595413617,109.10124045971315 165.70990486850496,109.69676284068555 165.67968662563362,110.35772264197294 165.77034135421854,110.76345794485678 166.16922216003877,111.29352873862081 166.65875769444392,111.23463213743526 168.39932848347235,110.29882543032 170.01298265249352,109.22558062198368 171.3607162842527,108.71513044316089 172.61175153887598,108.56461253172165 175.13799664238468,108.78057293508027 177.36205931726727,108.76094019250013 178.30486849468434,108.01489280998794 178.49222160043428,107.76620897896646 178.82462227193173,107.75966465836245 178.95758254054817,106.50969072485896 179.0965864577447,106.35916913580877 186.1616116396035,106.2348250251016 186.5242305539723,106.32644701802201 187.60000000000582,106.92198770506366" stroke="#4dd2ff" stroke-linecap="round" stroke-linejoin="round" stroke-width="0.5"><title>2022-10-27 9.4km</title></polyline><polyline fill="none" points="55.60000000000582,154.9488609877517 54.554302504548104,154.35323705971678 54.14932139357552,154.24196621991723 47.13166363508208,154.37941841386055 46.99264026863966,154.51687039851095 46.889883867348544,155.79974549652252 46.563481180899544,155.83247166363435 45.37876031899941,156.77498018575716 43.232964880386135,156.80116083758912 40.615698894660454,156.57862505504454 39.74529173079645,156.67025750251923 38.17976773472037,157.17423430128838 36.354330488306005,158.3523509086299 35.06685322514386,159.05266849620966 34.49262627676944,159.3210130484149 34.208535049663624,159.30137810821907 33.79750944452826,158.72541796309088 33.700797537429025,158.34580585882213 33.718931020004675,157.70438867687335 33.36835035678814,157.07605722345033 32.479809710377594,156.26445595765108 32.28034140198724,156.25136555486097 30.30983629496768,154.13724059835658 30.176857422688045,154.03251485528017 30.025745067861862,154.09796845894016 29.886721701419447,154.04560557981313 26.320470127335284,151.09359914225934 25.7704211557284,150.40631106017827 25.522596893832088,149.6208325573025 25.238505666697165,149.378641973286 25.147838253818918,148.9728076456522 24.688456695119385,148.8746216470172 24.3922764796298,148.69134083041718 22.065146215172717,146.11227843516826 19.90121729398379,143.93245501587808 19.707793479785323,144.05028465539363 19.447880229447037,143.97173157948419 18.631873513397295,142.79997341040144 18.571428571420256,142.583949292959 18.311515321140178,142.43993292723462 17.936756681127008,142.682142137739 16.95754862180911,141.56273737052106 16.48607807472581,141.1503215859484 14.956821043801028,141.75257892329682 14.273793199943611,141.6216537572618 14.062235903198598,140.67898695157783 13.463830978027545,140.770635545603 12.901693018036895,140.67898695157783 12.39999999999418,140.7379039155785" stroke="#4dd2ff" stroke-linecap="round" stroke-linejoin="round" stroke-width="0.5"><title>2022-10-25 9.4km</title></polyline><polyline fill="none" points="78.39999999999418,140.68553530933423 78.59946830835543,140.75099857652822 80.03201343218097,140.7379059268933 80.2435707289842,141.62165551198996 80.96286553796381,141.75912689144752 82.48607807472581,141.11104569680174 83.92466769271414,142.67559740020806 84.28733734431444,142.4399344444464 84.53516160626896,142.54467361190473 84.72254092624644,142.8850750662532 86.91669231845299,144.92745681835368 90.36809850286227,148.67824903601286 90.64010074155522,148.86152982601197 91.14783825381892,149.01862734974566 91.24455016091815,149.3982785696935 91.53468588218675,149.64701470985892 91.75228767315275,150.40631026553456 92.30838113895152,151.0935981482471 94.75640128724626,153.05070354344207 95.70538687560475,153.9212418059251 95.95925563175115,154.08487588030403 96.20103539948468,154.04560372951528 98.19571848327178,156.17936583652045 99.35626136843348,157.08259963426826 99.70079753745813,157.66511518919287 99.68266405482427,158.35889285685698 99.77333146776073,158.73195977610885 100.17226808448322,159.29482975475548 100.44427032320527,159.31446469066577 100.75253952707862,159.1770200495448 102.7532671050867,158.0709103211775 103.67203022245667,157.4033109103766 104.37319154888974,157.02369335766707 105.5820903875574,156.64407420885982 106.60965440043947,156.5458965830112 109.0999860081065,156.76843238167203 111.31831537705148,156.76843238167203 112.49699174478883,155.78010743724735 112.81130544285406,155.76047173271218 112.95032880929648,154.49068710485153 113.10748565831454,154.3401444440824 120.13723240522086,154.22232827357948 120.50594655098394,154.31396308614785 121.60000000000582,154.92267769409227" stroke="#4dd2ff" stroke-linecap="round" stroke-linejoin="round" stroke-width="0.5"><title>2022-10-25 9.4km</title></polyline><polyline fill="none" points="186.11339189024875,144.49515692407294 186.21215256885625,146.31340140136308 186.4044759956305,147.2872423750523 186.24853808205808,147.36604978053947 186.23294429067755,147.47300255994196 186.33690289975493,147.83326346910326 186.89827938875533,148.9703259929738 187.60000000000582,151.08679404615395 187.55841655636323,153.65349701337254 186.83070629287977,153.6591256546817 184.83989892911632,154.14881588670687 183.63917699432932,154.2332449248497 183.39487426303094,154.34581683287252 182.90626880037598,154.3064166836266 182.01742269282113,153.80547018558718 181.5807965347194,153.7154120453706 175.66555167848128,153.83924196122825 175.53560341717093,153.96870029842103 175.41085308627225,155.0493875597822 175.13016484177206,155.0381304783441 174.9222476236464,155.30267146060214 174.1425580555806,155.92743488308042 172.13095897005405,155.92180640622246 170.0413909276831,155.73606644095707 169.2824930814677,155.82612223718752 168.48720972207957,156.02874739677645 167.88424978943658,156.28765655340248 166.39244374923874,157.25574401153426 164.97340873541543,158.02119996865804 164.65113704730175,158.09999647706718 164.4380218987062,158.0043149921621 164.20931295873015,157.5990744549199 164.10535434965277,157.2276021045982 164.1209481410333,156.6929039348979 163.82986403562245,156.16383054274775 163.06576825893717,155.47715544491803 162.86304897122318,155.43212735748966 161.19451329563162,153.63661108697852 161.0593671038514,153.54655275086407 160.8202623029647,153.5521813999294 157.77427505716332,151.0079904191225 157.30646131632966,150.43947616754303 157.0777523763827,149.7527504289901 156.8386475755251,149.48256158740696 156.75548068826902,149.1898559474721 156.36563590425067,149.11667936496815 156.08494765975047,148.94218108210043 153.14291902296827,145.7054482378153 152.81025147397304,145.5196838209231 152.30605221996666,144.99053425596503 152.25407291541342,144.75410456034297 151.37042473832844,144.04481114999362 151.11052821562043,143.69016201276827 150.8766213452327,143.5832040182213 150.56474551800056,143.78023178851436 149.5979304536304,142.7050170126313 149.2548670436954,142.46858035080368 148.10612441343255,142.99211770451802 147.39400794130052,142.95271179011615 147.3004451931629,143.20603517622658 147.10812176635955,143.2623291496784 146.74426663460326,143.75771435438946 146.20887979786494,144.16865649849933 145.89180604022113,144.84980238108983 145.1588978462387,144.24746707186569 145.27325231622672,143.3355112540812 144.39999999999418,142.99774711923237 144.48316688727937,142.60931654585147 144.8574178799463,141.9225214963808 145.02375165445847,141.90000352293282 145.48636746482225,142.09703556886234 145.78784743114375,142.1026650485437" stroke="#4dd2ff" stroke-linecap="round" stroke-linejoin="round" stroke-width="0.5"><title>2022-10-24 13.2km</title></polyline><polyline fill="none" points="12.39999999999418,189.9209234369191 13.190565270459047,190.23803017492173 13.014884099218762,191.2020275925388 13.875721838121535,191.87428265633207 14.186091907264199,191.12592291985493 14.806832045549527,190.66295139981958 15.269459129718598,190.0667926793176 15.456852379022166,190.01605557915173 15.562261081737233,189.74334316102613 16.35868239120464,189.85115980013506 17.6704351362132,189.18523137312877 17.863684424577514,189.28036431625515 19.12858885724563,190.71368812442233 19.485807238699635,190.49171473683964 19.69076860509813,190.5868462576982 19.84302562015364,190.86589812149032 20.733143554301932,191.73475844568748 20.955673037824454,191.79817856904265 20.90296868645237,191.56986590957968 21.008377389167435,191.58889198731777 21.652541683608433,192.51482276490424 25.371126474172343,196.5101650151919 25.681496543285903,196.7321231195674 26.10313135420438,196.85261442594492 26.202684017887805,197.22677058207773 26.49548596990644,197.48677645947464 26.71215941439732,198.2033740218685 27.280195201281458,198.90728272355045 29.60504270027741,200.7526380956915 30.623993493267335,201.67847182578407 30.80553070353926,201.77359117433662 30.992923952813726,201.7101782867976 32.989833265542984,203.84716726397892 34.061488409904996,204.66516999801388 34.41285075232736,205.2675702212291 34.395282635232434,205.9206941972152 34.49483529891586,206.30749347616802 34.88718991458882,206.81476862687123 35.27954453029088,206.7767230926038 37.37600650670356,205.63534937064105 38.47694184628199,204.86808422074682 39.89995933306636,204.2847045616436 41.088735258206725,204.1642234951505 43.51899145994685,204.37347997814504 45.66815778770251,204.37347997814504 46.57584383894573,203.6822975695759 46.804229361528996,203.4096277776116 47.1204554697033,203.39060427203367 47.261000406666426,202.17943256582657 47.40154534362955,202.02724226471764 54.2121187474404,201.91309936508333 54.56933712892351,202.00187718877714 55.60000000000582,202.57258961792832" stroke="#4dd2ff" stroke-linecap="round" stroke-linejoin="round" stroke-width="0.5"><title>2022-10-24 10.0km</title></polyline><polyline fill="none" points="121.59999999997672,203.11626273737056 120.56274738066713,202.49680349624396 120.2232828870765,202.38788716323324 112.84307334106416,202.52403255976242 112.70477299182676,202.65337050359813 112.57275902212132,203.9943902625746 112.22700814899872,203.9943902625746 111.03259604191408,205.0222655375983 108.63119906868087,205.05630095028755 106.0726426076435,204.81124570366956 105.1485448195308,204.91335213415005 103.57694994175108,205.383040284265 101.54016298020724,206.71040713773255 99.88684516877402,207.58850105266174 99.4342258439865,207.64976311242935 99.26449359717662,207.54085275631223 99.00046565770754,207.0371407163766 98.88731082653976,206.6151096298272 98.90616996504832,205.98886645770108 98.5227008148795,205.3353908688805 97.6111757857725,204.50492574603413 97.39743888238445,204.47769725699618 95.34179278230295,202.26535613754822 95.19091967400163,202.14963224423263 95.03376018625568,202.22451242677198 94.90174621652113,202.1700541181126 91.21792782301782,199.1135309000456 90.62072176946094,198.37831670244486 90.38812572759343,197.58863577921875 90.0612339930085,197.29590754214587 89.98579743885784,196.92829404422082 89.47031431895448,196.79894821177004 89.16856810243917,196.5742945001184 85.59790454013273,192.6665954191849 84.47264260766678,191.6453928803894 84.09545983700082,191.59773649045383 83.13993015131564,190.24973143444367 82.85704307330889,190.11356823052483 82.47986030264292,190.3518537076743 80.99627473804867,188.7655418481154 79.50640279392246,189.37828351420467 78.70803259601234,189.28296840679832 78.50058207215625,188.35023688757792 78.39999999999418,188.35023688757792" stroke="#4dd2ff" stroke-linecap="round" stroke-linejoin="round" stroke-width="0.5"><title>2022-10-21 9.1km</title></polyline><polyline fill="none" points="145.7918576435768,189.1614201018383 145.51814505259972,189.15511293072632 145.04060393638792,188.95328321318812 144.88918846051092,188.98481913744763 144.5048260986805,189.71644936774828 144.39999999999418,190.1264118902036 144.45823672151892,190.2210183515126 145.4133189538843,190.54267954957322 145.25607980589848,191.57072598391096 146.08304125102586,192.19511634877563 146.1703963332693,192.13835377368378 146.3975195470557,191.4508929766016 147.08471286061103,190.94002409173845 147.48654623888433,190.41653804516682 147.6787274198141,190.34085305464396 147.76608250202844,190.0822621730258 148.54645456996514,190.15794738874683 149.89172283635708,189.53354238765314 150.04313831223408,189.60292094265606 151.31852251282544,191.03462966735242 151.72617956323666,190.82019021479937 152.75696953356965,191.84823336653062 152.9200323537516,191.8356194138105 153.00738743599504,191.72209375700186 154.39924507954856,193.43757676189125 155.31938527905731,194.33945314536686 157.5323806956003,196.80537507066038 157.7827985979966,196.98826674951852 158.26033971420838,197.12701190444932 158.3418711243139,197.4738738231099 158.65634942034376,197.8018147281473 158.86017794552026,198.48291880955367 159.37848476678482,199.1324853242695 161.75454300350975,201.02439898210287 162.74456726878998,201.92619667397958 162.93092477758182,202.02709653339116 163.13475330278743,201.97034037687263 165.13809652198688,204.10182394356525 166.16306282015285,204.91530537979997 166.51248314909753,205.48284606277593 166.49501213265467,206.13236030093685 166.59401455920306,206.55485725079052 166.96672957669944,207.04671678681188 167.42097600430134,206.99626978288143 169.4534375842486,205.87381637933868 170.19886761929956,205.29997224704857 170.9908870315412,204.84593904238864 171.99255864115548,204.51171864139178 173.16894041519845,204.39820953382878 175.6498247506097,204.6189215514023 177.73469937988557,204.60630945120647 178.63154489078443,203.9063350228098 178.83537341601914,203.64147836479242 179.16149905632483,203.62886612286093 179.29544351575896,202.4180823829447 179.42356430305517,202.29195810738747 186.21396602859022,202.15952742120862 186.55756268536788,202.2478145677378 187.60000000000582,202.82167883567308" stroke="#4dd2ff" stroke-linecap="round" stroke-linejoin="round" stroke-width="0.5"><title>2022-10-21 10.4km</title></polyline><polyline fill="none" points="55.59999999997672,250.83234127343167 55.26818488075514,250.73778674218192 54.49394960247446,250.26501254341565 54.068993397115264,250.18306475417194 47.40940574047272,250.31544191375724 47.29880070069339,250.41630056672875 47.1823743430723,251.67072028579423 46.82727395227994,251.6896309973381 45.70958091900684,252.65407183315256 43.50330144184409,252.65407183315256 41.139846381905954,252.43975257188868 40.27247001751675,252.54060876063886 38.89863899743068,252.95663930269075 36.9484975070809,254.19841559857014 35.41166958629037,255.01154884485732 34.97507074516034,255.06827878762124 34.61997035439708,254.54510124573426 34.49190136100515,254.141685088347 34.5210079504177,253.57437795068836 34.42786686428008,253.2844195399739 34.16590755962534,252.9377288666874 33.315995148877846,252.1560939138144 33.1122490230191,252.1371833037265 31.249427300906973,250.1263316240802 31.068966446560808,249.9876504835338 30.917612181656295,250.05699108146655 30.801185824006097,250.0065615611893 27.34914432017831,247.13203054676706 26.848510982323205,246.50163822932518 26.615658267051913,245.75146541382856 26.324592372984625,245.49300101125846 26.248915240517817,245.13367117448797 25.789031127875205,245.02650233905297 25.474679962266237,244.82477240796288 22.19145667698467,241.20616222926037 21.260045815928606,240.39289982906485 21.050478372140788,239.82550294854445 20.21220859719324,239.31484258774435 19.740681848779786,238.85461524648417 19.653362080542138,238.8293972395113 19.29244037187891,239.05635903866641 18.22131788166007,237.83958468343917 17.842932219355134,237.58740133770334 16.55059964960674,238.16111738746258 15.764721735584317,238.12329007228254 15.65993801370496,238.42590813245624 15.47365584151703,238.43221266417095 15.031235682487022,239.01222762415273 14.425818622810766,239.47875858623593 14.181323271768633,240.16594152153266 14.070718232018407,240.2289855553172 13.238269774941728,239.59854315876146 13.377981404104503,238.55199867972988 12.39999999999418,238.19894468616258 12.469855814561015,237.74501601456723 12.819134887453401,237.11455559111346 12.807492251682561,236.9821583208104 12.644495351007208,236.93172121237149" stroke="#4dd2ff" stroke-linecap="round" stroke-linejoin="round" stroke-width="0.5"><title>2022-10-20 10.3km</title></polyline><polyline fill="none" points="79.66305578008178,237.16933674127358 79.12174616003176,236.94870446702407 78.91802748583723,236.96761582677573 78.49894907031558,237.74297803132504 78.39999999999418,238.10859357992013 78.46984640255687,238.22206016138807 79.40695230392157,238.5372443321612 79.24979789814097,239.5710403846606 80.1054163298104,240.20139779309102 80.40226354080369,239.4575755653641 81.05998383180122,238.96589296903403 81.49070331445546,238.39856343793508 81.66531932092039,238.36074133744114 81.77008892479353,238.07077135315922 82.59660468873335,238.14641579022282 83.8945836701314,237.5223472142825 85.32061438960955,239.02892935486307 85.72223120447597,238.8146054563913 86.81649151167949,239.9240410969287 87.05513338718447,239.81688031806698 87.16572352463845,239.85470178451942 87.89329021822778,240.85696464564535 88.44042037182953,241.45579542792257 88.7489086499263,241.63859558120748 88.92934518994298,241.94746393177047 91.50784155211295,244.77135222599463 91.77558609537664,244.97935822576983 92.27033144704183,245.14324139007658 92.36345998381148,245.4962194634354 92.63702506059781,245.7735583723843 92.87566693610279,246.5110234380263 93.37041228776798,247.12242135446286 95.73354890863993,249.00070969978697 96.75214227969991,249.92723296103213 96.93257881971658,250.0280784343122 97.15375909456634,249.95874718399864 99.10945836699102,252.0764767881119 99.39466451088083,252.18992513250123 100.18043653998757,252.92103313402913 100.51802748584305,253.51347821196396 100.48892481808434,254.11852433772583 100.5820533548831,254.48407099843462 100.97202910264605,255.04499305849458 101.23977364588063,255.0512955329832 101.60646725946572,254.88112856114458 103.09070331443218,254.0807090782182 104.31301535971579,253.22986139114073 105.03476151975337,252.84540155690047 105.99514955535415,252.53657193416439 107.14761519804597,252.39791337936913 109.69700889245723,252.6185064307938 111.71673403395107,252.5995984768815 112.8284559417807,251.64789281775302 113.1544058205036,251.61637920713838 113.27663702503196,250.4125507279823 113.43379143084167,250.26128314320522 120.08666127725155,250.1289237906094 120.51738075987669,250.22346620589815 121.59999999997672,250.83483800896647" stroke="#4dd2ff" stroke-linecap="round" stroke-linejoin="round" stroke-width="0.5"><title>2022-10-20 10.4km</title></polyline><polyline fill="none" points="187.59999999997672,250.84451753945177 186.70242849431816,250.32067932623613 186.10793308148277,250.1628961141032 179.46357258499484,250.29543403151183 179.32951969778514,250.42797174709995 179.2129519697628,251.66498069473892 178.87490555856493,251.67129191980348 177.79082568807644,252.62428165457823 175.55272531029186,252.6495262739263 173.16891527254484,252.44125794535648 172.31214247163734,252.53592542919796 170.97161359956954,252.9398388703121 168.72768483537948,254.3408990956741 167.38715596331167,255.02879879183456 167.0199676200573,255.0603536934068 166.8567728008784,254.94675599424227 166.5886670264299,254.4734306524624 166.4954128440295,254.12632376647525 166.5245547760278,253.4636613232724 166.18067997839535,252.90197206482844 165.3413923367334,252.14463249602704 165.1140852671524,252.09414295718307 163.12660550457076,249.94199913665216 162.95758229895728,250.03035799490317 162.81187263893662,249.96724453387287 159.42558014029055,247.16496073698363 158.87188343223534,246.48331049422268 158.6212628170324,245.71329176041036 158.34150026983116,245.43557841404981 158.2599028602126,245.10737058929953 157.81694549377426,245.01900673264754 157.5080410145747,244.8107201440871 154.1975175391126,241.16246813377802 153.30577441985952,240.39240230726864 153.09595250943676,240.08311165482883 152.80453318939544,240.0641754567041 151.9011332973314,238.92799602538435 151.6679978413158,238.79544079166226 151.31829465730698,239.0226782115351 150.08850512679783,237.66555702793266 149.82039935237844,237.570873364406 148.5556395034655,238.13266159268096 147.78046411223477,238.0821639228452 147.64641122502508,238.3914616904658 147.4715596330061,238.43564699604758 147.0460874257842,238.98480534944247 146.41662169454503,239.43927860606345 146.18348623850034,240.13360816299246 146.08440366969444,240.20935287028988 145.2451160280325,239.58445706259226 145.3791689152713,238.5303297181381 144.39999999999418,238.16422262145352 144.46411225039628,237.75392835422826 144.82547220721608,237.12901490500371 144.82547220721608,236.97120776832162 144.6855909336009,236.93964630660048" stroke="#4dd2ff" stroke-linecap="round" stroke-linejoin="round" stroke-width="0.5"><title>2022-10-19 10.3km</title></polyline></svg>