<?xml version="1.0" encoding="utf-8" ?>
<svg baseProfile="full" height="200mm" version="1.1" viewBox="0,0,200,200" width="200mm" xmlns="http://www.w3.org/2000/svg" xmlns:ev="http://www.w3.org/2001/xml-events" xmlns:xlink="http://www.w3.org/1999/xlink"><defs /><rect fill="#1a1a1a" height="200" width="200" x="0" y="0" /><text alignment-baseline="middle" fill="#e1ed5e" style="dominant-baseline: central; font-size:9.0px; font-family:Arial;" text-anchor="middle" x="100.0" y="100.0">2023</text><line stroke="#e1ed5e" stroke-width="0.3" x1="100.0" x2="100.0" y1="15.0" y2="10.0" /><path d="M 100.0 14.0 a86.0,86.0 0 0,1 42.46469731375804,11.215312516191453" fill="none" id="id85" stroke="none" /><text fill="#e1ed5e" style="font-size:6.75px; font-family:Arial;" text-anchor="middle"><textPath startOffset="22.20632615414155" xlink:href="#id85">January</textPath></text><path d="M 100.0 79.0 l 0.0 -34.02210660895658 a55.02210660895658,55.02210660895658 0 0,0 0.947115117504275,0.008152118831273326 l -0.5856346382317466 34.017065866733866" fill="#79ff26" stroke="none" /><path d="M 100.36148047927253 79.00311137660856 l 0.6579367328860473 -38.21679203659354 a59.22245510577153,59.22245510577153 0 0,0 1.0191151368377875,0.02632073730199715 l -1.3156785049187025 38.19980450714918" fill="#4aff2c" stroke="none" /><path d="M 101.08401301168833 79.027996857942 l 1.7577344310375258 -34.00624495568442 a55.051642050216415,55.051642050216415 0 0,0 0.9459391297816742,0.05706163155614214 l -2.342835609658812 33.97095005474797" fill="#78ff26" stroke="none" /><path d="M 101.80526077348638 79.07773832637324 l 2.9268712597891158 -33.92128565673266 a55.04732289001642,55.04732289001642 0 0,0 0.9433403966222357,0.08958153741254654 l -3.5103367835015957 33.86587857480493" fill="#78ff26" stroke="none" /><path d="M 102.16513564639614 79.11191278185805 l 2.4038629775874654 -23.191202648151588 a44.31545490619149,44.31545490619149 0 0,0 0.758075569115109,0.08517862303833354 l -2.8027052502122998 23.14638807164265" fill="#fbff18" stroke="none" /><path d="M 102.52436894288641 79.15227682838746 l 5.617694763288979 -46.394226809712485 a67.73310149909301,67.73310149909301 0 0,0 1.1562532990432368,0.1501148629076912 l -6.415462790840062 46.29065362364066" fill="#37ff7b" stroke="none" /><path d="M 103.2404852339499 79.25152402106235 l 6.2213446029619135 -39.83459566452207 a61.31749174272581,61.31749174272581 0 0,0 1.0414361170214752,0.17184588267752954 l -6.906109926122264 39.721603518904914" fill="#34ff2f" stroke="none" /><path d="M 103.95276090670814 79.375362276772 l 7.57869999755245 -39.5439910360584 a61.26367992015594,61.26367992015594 0 0,0 1.0339955258741735,0.20740977516548842 l -8.258261932893749 39.4076773048157" fill="#34ff2f" stroke="none" /><path d="M 105.01212808612495 79.60689891045804 l 6.1577996493587985 -25.054553391433302 a46.800177173147965,46.800177173147965 0 0,0 0.7806517177009392,0.19900550477753606 l -6.588160255744763 24.9448448904869" fill="#dbff1b" stroke="none" /><path d="M 105.36241919743992 79.69619591428918 l 10.861687450454514 -41.125761697171555 a63.53592046075769,63.53592046075769 0 0,0 1.0550052178466964,0.2883727790904897 l -11.56799055752492 40.93270237725478" fill="#32ff46" stroke="none" /><path d="M 105.71112130821622 79.79150937346287 l 5.910904590718114 -20.915412853170654 a42.73461036915888,42.73461036915888 0 0,0 0.7061584685655237,0.20614702111447122 l -6.270053277007064 20.81056750313748" fill="#ffee16" stroke="none" /><path d="M 106.0581310904928 79.89281104454417 l 9.737726983684649 -32.31992070373988 a54.75500853362081,54.75500853362081 0 0,0 0.9001061839597786,0.27966737284869536 l -10.292618540355146 32.14751319600866" fill="#7cff26" stroke="none" /><path d="M 106.74666289553966 80.11325718540242 l 20.239988686618958 -59.66022844379275 a84.0,84.0 0 0,0 1.3652719837469054,0.4763165873111701 l -21.26394267442914 59.302991003309366" fill="#4dd2ff" stroke="none" /><path d="M 107.08798089147638 80.2323363322302 l 1.7714346787353774 -4.940352615901443 a26.248339241176254,26.248339241176254 0 0,0 0.423995266177344,0.15616103477636076 l -1.856212270685298 4.9091283133187575" fill="#ff0000" stroke="none" /><line stroke="#e1ed5e" stroke-width="0.3" x1="143.23703022742887" x2="145.7803849466894" y1="26.81831364943548" y2="22.513508569990506" /><path d="M 143.74570117128098 25.957352633546492 a86.0,86.0 0 0,1 28.547481713284135,27.462654790039103" fill="none" id="id86" stroke="none" /><text fill="#e1ed5e" style="font-size:6.75px; font-family:Arial;" text-anchor="middle"><textPath startOffset="19.985693538727396" xlink:href="#id86">February</textPath></text><line stroke="#e1ed5e" stroke-width="0.3" x1="172.23445277983987" x2="176.4835382374775" y1="55.19839476539836" y2="52.563006222186495" /><path d="M 173.08426987136738 54.67131705675599 a86.0,86.0 0 0,1 12.851231095245387,41.99856678651699" fill="none" id="id87" stroke="none" /><text fill="#e1ed5e" style="font-size:6.75px; font-family:Arial;" text-anchor="middle"><textPath startOffset="22.20632615414155" xlink:href="#id87">March</textPath></text><line stroke="#e1ed5e" stroke-width="0.3" x1="184.98032266829074" x2="189.97916517819016" y1="98.17113171792111" y2="98.06355123074" /><path d="M 185.9800911702706 98.14961562048488 a86.0,86.0 0 0,1 -9.607161424134198,41.387399972396054" fill="none" id="id88" stroke="none" /><text fill="#e1ed5e" style="font-size:6.75px; font-family:Arial;" text-anchor="middle"><textPath startOffset="21.466115282336823" xlink:href="#id88">April</textPath></text><line stroke="#e1ed5e" stroke-width="0.3" x1="174.80103733775053" x2="179.2010983576182" y1="140.37084112569926" y2="142.7455964860345" /><path d="M 175.68104954172406 140.8457921977663 a86.0,86.0 0 0,1 -30.038265399797805,32.042727171017184" fill="none" id="id89" stroke="none" /><text fill="#e1ed5e" style="font-size:6.75px; font-family:Arial;" text-anchor="middle"><textPath startOffset="22.206326154141568" xlink:href="#id89">May</textPath></text><line stroke="#e1ed5e" stroke-width="0.3" x1="143.8653032363475" x2="146.44561519142675" y1="172.8068346515853" y2="177.08958963109032" /><path d="M 144.38136562736335 173.6633856474863 a86.0,86.0 0 0,1 -40.68145358897372,12.25698825130547" fill="none" id="id90" stroke="none" /><text fill="#e1ed5e" style="font-size:6.75px; font-family:Arial;" text-anchor="middle"><textPath startOffset="21.466115282336833" xlink:href="#id90">June</textPath></text><line stroke="#e1ed5e" stroke-width="0.3" x1="102.19456741930631" x2="102.32365962044197" y1="184.97166512339345" y2="189.96999836594603" /><path d="M 102.22038585953345 185.97133177190398 a86.0,86.0 0 0,1 -42.740103519485714,-10.115201625700543" fill="none" id="id91" stroke="none" /><text fill="#e1ed5e" style="font-size:6.75px; font-family:Arial;" text-anchor="middle"><textPath startOffset="22.20632615414155" xlink:href="#id91">July</textPath></text><line stroke="#e1ed5e" stroke-width="0.3" x1="58.666819895761336" x2="56.23545636021788" y1="174.27360380694188" y2="178.64263932499728" /><path d="M 58.180547188652646 175.14741091055294 a86.0,86.0 0 0,1 -31.652253787137756,-30.449443065178592" fill="none" id="id92" stroke="none" /><text fill="#e1ed5e" style="font-size:6.75px; font-family:Arial;" text-anchor="middle"><textPath startOffset="22.20632615414155" xlink:href="#id92">August</textPath></text><line stroke="#e1ed5e" stroke-width="0.3" x1="26.63291911575756" x2="22.317208475507996" y1="142.92168965132927" y2="145.44649492493687" /><path d="M 25.769776987707644 143.4266507060508 a86.0,86.0 0 0,1 -11.730757126820373,-40.83630448921669" fill="none" id="id93" stroke="none" /><text fill="#e1ed5e" style="font-size:6.75px; font-family:Arial;" text-anchor="middle"><textPath startOffset="21.46611528233685" xlink:href="#id93">September</textPath></text><line stroke="#e1ed5e" stroke-width="0.3" x1="15.007084014347285" x2="10.007500721073583" y1="101.09737516637583" y2="101.16192664675087" /><path d="M 14.007167355692545 101.11028546245083 a86.0,86.0 0 0,1 10.666146001902534,-42.60595125391555" fill="none" id="id94" stroke="none" /><text fill="#e1ed5e" style="font-size:6.75px; font-family:Arial;" text-anchor="middle"><textPath startOffset="22.20632615414155" xlink:href="#id94">October</textPath></text><line stroke="#e1ed5e" stroke-width="0.3" x1="26.266209847984243" x2="21.928928074336255" y1="57.711370442889674" y2="55.22380399835377" /><path d="M 25.398753493254645 57.213857153982495 a86.0,86.0 0 0,1 29.58750427330803,-30.492523968695096" fill="none" id="id95" stroke="none" /><text fill="#e1ed5e" style="font-size:6.75px; font-family:Arial;" text-anchor="middle"><textPath startOffset="21.46611528233685" xlink:href="#id95">November</textPath></text><line stroke="#e1ed5e" stroke-width="0.3" x1="56.762969772571076" x2="54.21961505331055" y1="26.818313649435495" y2="22.513508569990535" /><path d="M 56.25429882871897 25.957352633546506 a86.0,86.0 0 0,1 42.265352541879196,-11.944610805530505" fill="none" id="id96" stroke="none" /><text fill="#e1ed5e" style="font-size:6.75px; font-family:Arial;" text-anchor="middle"><textPath startOffset="22.20632615414155" xlink:href="#id96">December</textPath></text></svg>