<?xml version="1.0" encoding="utf-8" ?>
<svg baseProfile="full" height="200mm" version="1.1" viewBox="0,0,200,200" width="200mm" xmlns="http://www.w3.org/2000/svg" xmlns:ev="http://www.w3.org/2001/xml-events" xmlns:xlink="http://www.w3.org/1999/xlink"><defs /><rect fill="#1a1a1a" height="200" width="200" x="0" y="0" /><text alignment-baseline="middle" fill="#e1ed5e" style="dominant-baseline: central; font-size:9.0px; font-family:Arial;" text-anchor="middle" x="100.0" y="100.0">2023</text><line stroke="#e1ed5e" stroke-width="0.3" x1="100.0" x2="100.0" y1="15.0" y2="10.0" /><path d="M 100.0 14.0 a86.0,86.0 0 0,1 42.46469731375804,11.215312516191453" fill="none" id="id85" stroke="none" /><text fill="#e1ed5e" style="font-size:6.75px; font-family:Arial;" text-anchor="middle"><textPath startOffset="22.20632615414155" xlink:href="#id85">January</textPath></text><path d="M 100.0 79.0 l 0.0 -9.672168159300192 a30.672168159300192,30.672168159300192 0 0,0 0.5279709545976866,0.004544412692601464 l -0.16649047532515818 9.670735123216149" fill="#ff740a" stroke="none" /><path d="M 100.36148047927253 79.00311137660856 l 0.1870452876947701 -10.864678173385856 a31.86628813122935,31.86628813122935 0 0,0 0.5483632269443904,0.014162604322867688 l -0.3740351498340283 10.859848776920629" fill="#ff840c" stroke="none" /><path d="M 101.08401301168833 79.027996857942 l 0.4997075340393863 -9.667658838948688 a30.680564810272095,30.680564810272095 0 0,0 0.5271767688848611,0.031800742356443555 l -0.6660463517638593 9.65762482721194" fill="#ff740a" stroke="none" /><path d="M 101.80526077348638 79.07773832637324 l 0.832082249658536 -9.6435057012373 a30.679336913239105,30.679336913239105 0 0,0 0.5257486891717859,0.04992617303073046 l -0.9979560659205661 9.627753983691392" fill="#ff740a" stroke="none" /><path d="M 102.16513564639614 79.11191278185805 l 0.6833958642943394 -6.593043000173275 a27.62836676033157,27.62836676033157 0 0,0 0.47262044133124964,0.05310441340215853 l -0.7967830091353143 6.580302633300516" fill="#ff4a06" stroke="none" /><path d="M 102.52436894288641 79.15227682838746 l 1.5970583198351078 -13.189446746549207 a34.28578566577875,34.28578566577875 0 0,0 0.5852832944151664,0.07598656935811184 l -1.8238563427581203 13.160001854026959" fill="#ffa50f" stroke="none" /><path d="M 103.2404852339499 79.25152402106235 l 1.7686703492064515 -11.324604682872822 a32.46188754208953,32.46188754208953 0 0,0 0.5513431999936966,0.09097635208979099 l -1.9633427553390232 11.292482067843407" fill="#ff8c0c" stroke="none" /><path d="M 103.95276090670814 79.375362276772 l 2.154553850757667 -11.241988492562262 a32.44658934192701,32.44658934192701 0 0,0 0.547626721952614,0.1098487686189727 l -2.347746982177406 11.203235767866081" fill="#ff8c0c" stroke="none" /><path d="M 105.01212808612495 79.60689891045804 l 1.750605110507726 -7.122776268483979 a28.33475016778447,28.33475016778447 0 0,0 0.4726386250050188,0.12048610925175343 l -1.8729526241977699 7.091587163063357" fill="#ff5407" stroke="none" /><path d="M 105.36241919743992 79.69619591428918 l 3.087876618636538 -11.691671165054574 a33.09256617280595,33.09256617280595 0 0,0 0.5494975083553076,0.15019842642213888 l -3.2886720162155565 11.63678619780614" fill="#ff950d" stroke="none" /><path d="M 105.71112130821622 79.79150937346287 l 1.6804151439568502 -5.946057149318286 a27.17894737629304,27.17894737629304 0 0,0 0.4491124100739942,0.13110822797376687 l -1.7825177717542715 5.916250592425816" fill="#ff4406" stroke="none" /><path d="M 106.0581310904928 79.89281104454417 l 2.7683451221317985 -9.188252553988665 a30.596234663195254,30.596234663195254 0 0,0 0.502965130748112,0.1562737144322415 l -2.9260956255906287 9.139238704673902" fill="#ff730a" stroke="none" /><path d="M 106.74666289553966 80.11325718540242 l 5.754040347042341 -16.960847503155986 a38.910313462938156,38.910313462938156 0 0,0 0.6324185815447559,0.22063842523660213 l -6.045140932650371 16.859288224747175" fill="#ffe015" stroke="none" /><path d="M 107.08798089147638 80.2323363322302 l 0.5036023869090444 -1.4044962534641499 a22.492053983639774,22.492053983639774 0 0,0 0.36331915432990197,0.13381351071617573 l -0.5277038670115227 1.3956194749416495" fill="#ff0000" stroke="none" /><path d="M 108.43124777332544 80.76684994638697 l 4.586743042295557 -10.463162696859213 a32.42435929743952,32.42435929743952 0 0,0 0.5092444520739744,0.2284831415261113 l -4.766169612836311 10.382659224816571" fill="#ff8c0c" stroke="none" /><path d="M 108.76106565485865 80.91482961587045 l 2.427213417965084 -5.287459707007124 a26.817954548599843,26.817954548599843 0 0,0 0.4178770979370916,0.1961989006016071 l -2.5178687272017735 5.244895823765514" fill="#ff3f05" stroke="none" /><path d="M 109.08828744355905 81.06846463323043 l 10.403334908330791 -21.670870774338642 a45.038635929124155,45.038635929124155 0 0,0 0.6960157835074812,0.3415319222037609 l -10.774821958848705 21.48858369200005" fill="#d3ff1c" stroke="none" /><path d="M 109.73455568895987 81.39251694778311 l 6.602588625648113 -12.620766666509727 a35.24352231051087,35.24352231051087 0 0,0 0.535122460309351,0.28584388583285963 l -6.8188561324857755 12.505244054175114" fill="#ffb110" stroke="none" /><path d="M 110.05341064243156 81.56283822128135 l 5.489151181758765 -10.066670104848452 a32.46597696212814,32.46597696212814 0 0,0 0.4883438117656452,0.2717628025289549 l -5.661619082596446 9.970691904759319" fill="#ff8c0c" stroke="none" /><path d="M 110.36928655335952 81.73862282372117 l 5.682918687726553 -10.008202694048931 a32.50911317072171,32.50911317072171 0 0,0 0.48423603925981823,0.28050076921291234 l -5.854351459451699 9.90889776744597" fill="#ff8d0d" stroke="none" /><line stroke="#e1ed5e" stroke-width="0.3" x1="143.23703022742887" x2="145.7803849466894" y1="26.81831364943548" y2="22.513508569990506" /><path d="M 143.74570117128098 25.957352633546492 a86.0,86.0 0 0,1 28.547481713284135,27.462654790039103" fill="none" id="id86" stroke="none" /><text fill="#e1ed5e" style="font-size:6.75px; font-family:Arial;" text-anchor="middle"><textPath startOffset="19.985693538727396" xlink:href="#id86">February</textPath></text><path d="M 110.68208982089419 81.91981866633111 l 5.885238746664244 -9.961176653232494 a32.56983471887746,32.56983471887746 0 0,0 0.48023125361839375,0.2893339569609105 l -6.055832066500276 9.858396086812968" fill="#ff8e0d" stroke="none" /><path d="M 111.2981086023043 82.29822771554956 l 6.227654516230748 -9.75743161913509 a32.57545474595389,32.57545474595389 0 0,0 0.4700684256236188,0.30574557982952955 l -6.394689967638647 9.648787115146032" fill="#ff8e0d" stroke="none" /><path d="M 111.60114157652 82.49532879139004 l 18.384263431383253 -27.73955344447825 a54.278581207941556,54.278581207941556 0 0,0 0.774362291627266,0.5228528759855161 l -18.859030417417063 27.418988656194067" fill="#6cff28" stroke="none" /><path d="M 111.90073688211348 82.69761687909136 l 6.633660420958762 -9.644624129951602 a32.705734713747766,32.705734713747766 0 0,0 0.4611023621799395,0.32303167181776204 l -6.798693922722353 9.529007615369904" fill="#ff900d" stroke="none" /><path d="M 112.19680574252982 82.90503203632743 l 6.645549446886301 -9.314361259307853 a32.44205633266616,32.44205633266616 0 0,0 0.45180149150487847,0.32825299779454503 l -6.8048962547449685 9.198589026696634" fill="#ff8c0c" stroke="none" /><path d="M 112.77801427241765 83.33499621200491 l 7.9317979342304055 -10.344599700822824 a34.03549620995401,34.03549620995401 0 0,0 0.46185754232530896,0.36048713764784873 l -8.108688031715145 10.206534173951752" fill="#ffa10e" stroke="none" /><path d="M 113.06298171725822 83.55741782278167 l 6.98472199352187 -8.791780303250142 a32.22861265817845,32.22861265817845 0 0,0 0.431397785104542,0.34882700718285964 l -7.135023177190903 8.670247198803153" fill="#ff890c" stroke="none" /><path d="M 113.34407831869373 83.78471172551755 l 7.345882540201944 -8.926476611950998 a32.560448736885256,32.560448736885256 0 0,0 0.4297087124122274,0.35986868888423545 l -7.498448789573288 8.798706765672941" fill="#ff8e0d" stroke="none" /><path d="M 113.6212207817346 84.01681056812373 l 3.924495262965593 -4.6050168496345485 a27.050441575162715,27.050441575162715 0 0,0 0.3517925401676348,0.3050710242121171 l -4.003181601779992 4.536780832002759" fill="#ff4206" stroke="none" /><path d="M 113.89432698308785 84.25364557470407 l 22.642952958140167 -25.661117875530284 a55.222745203832034,55.222745203832034 0 0,0 0.7073481759341456,0.6350641764383792 l -23.081312121670305 25.267554690322605" fill="#63ff29" stroke="none" /><path d="M 114.42810811169701 84.74124197986012 l 8.490431866267762 -8.979239989810873 a33.35775805194267,33.35775805194267 0 0,0 0.4138216632406591,0.39809611216704 l -8.64373677312084 8.83176079088153" fill="#ff980e" stroke="none" /><path d="M 114.68862486808459 84.99185889309783 l 8.01943510632129 -8.193878920199397 a32.46520785609168,32.46520785609168 0 0,0 0.39602019013606093,0.3943195535848147 l -8.159291096624672 8.054623515964465" fill="#ff8c0c" stroke="none" /><path d="M 115.9244219780498 86.31012108654704 l 8.709402049926783 -7.487283346072088 a32.48534265799838,32.48534265799838 0 0,0 0.3608802694926297,0.4271684115827649 l -8.83699293290653 7.336255984860217" fill="#ff8d0d" stroke="none" /><path d="M 116.38621287248628 86.86637796730983 l 10.43018881300749 -8.359842427632808 a34.36696689940677,34.36696689940677 0 0,0 0.36600151949593485,0.46478476172360417 l -10.572544413097388 8.179065271956166" fill="#ffa60f" stroke="none" /><path d="M 116.60985879189232 87.15038557335679 l 14.065576196405836 -10.881322537227591 a38.78323969067716,38.78323969067716 0 0,0 0.40394417316220027,0.5315431820777068 l -14.25079630979215 10.637594579268852" fill="#ffdf14" stroke="none" /><path d="M 116.82858285166822 87.43820079747576 l 12.693524741601285 -9.475159636538395 a36.839956455228354,36.839956455228354 0 0,0 0.3749560022786797,0.5114395657240883 l -12.854743356393591 9.255257627142813" fill="#ffc612" stroke="none" /><path d="M 117.2510076193507 88.02491185347247 l 25.649845140825683 -17.80528785817842 a52.22407454931106,52.22407454931106 0 0,0 0.5062639943491382,0.7428799420116123 l -25.952533600843555 17.361129892896404" fill="#82ff25" stroke="none" /><path d="M 117.65298651832404 88.62581576622439 l 9.783640168853465 -6.303801662228412 a32.63862235620336,32.63862235620336 0 0,0 0.3002324350365854,0.4748956112526493 l -9.890700200136004 6.134458403261556" fill="#ff8f0d" stroke="none" /><line stroke="#e1ed5e" stroke-width="0.3" x1="172.23445277983987" x2="176.4835382374775" y1="55.19839476539836" y2="52.563006222186495" /><path d="M 173.08426987136738 54.67131705675599 a86.0,86.0 0 0,1 12.851231095245387,41.99856678651699" fill="none" id="id87" stroke="none" /><text fill="#e1ed5e" style="font-size:6.75px; font-family:Arial;" text-anchor="middle"><textPath startOffset="22.20632615414155" xlink:href="#id87">March</textPath></text><path d="M 117.84615892207809 88.93136811851018 l 13.182364887411383 -8.1760307584016 a36.51200254600242,36.51200254600242 0 0,0 0.32666802149176305,0.5369563357595543 l -13.321148707189371 7.947906649434965" fill="#ffc212" stroke="none" /><path d="M 118.03404312379186 89.2402003453031 l 9.489605190764603 -5.661861289446107 a32.05030678024438,32.05030678024438 0 0,0 0.27859397299960403,0.4762074074195135 l -9.585658838234535 5.497674469672698" fill="#ff870c" stroke="none" /><path d="M 118.21658344932153 89.55222093294921 l 12.72656552321154 -7.299082467289554 a35.67113066129841,35.67113066129841 0 0,0 0.3008984868146769,0.535264832887891 l -12.85032165131865 7.078934124466869" fill="#ffb710" stroke="none" /><path d="M 118.56541770881063 90.18545643968196 l 30.31233318799078 -16.024509609995135 a55.2873511887488,55.2873511887488 0 0,0 0.43753505872066084,0.8451784688362055 l -30.583677679871556 15.500358418898585" fill="#62ff29" stroke="none" /><path d="M 118.89224826269711 90.83032412892265 l 10.235255761885492 -4.9678564715551685 a32.37717269066365,32.37717269066365 0 0,0 0.23903882534561233,0.5034767286786755 l -10.31925278107286 4.790937327235953" fill="#ff8b0c" stroke="none" /><path d="M 119.04729006885535 91.15688171328212 l 12.554985709914229 -5.828924918950229 a34.84211081760688,34.84211081760688 0 0,0 0.24787288705984628,0.5461550498400984 l -12.65346091393742 5.611947860268068" fill="#ffac0f" stroke="none" /><path d="M 119.196687751892 91.48605970444005 l 14.889566201156653 -6.603684932622858 a37.288272970084236,37.288272970084236 0 0,0 0.25517482093919813,0.5889786686221523 l -15.001031731938532 6.346407119414104" fill="#ffcc13" stroke="none" /><path d="M 119.34039704204932 91.81776055985345 l 18.270446031283004 -7.729580927486084 a40.83823630004899,40.83823630004899 0 0,0 0.2683233788201723,0.6497663450325418 l -18.400791096989373 7.413940012000239" fill="#fff817" stroke="none" /><path d="M 119.61058180528143 92.48833698450437 l 13.724541048101328 -5.257066231860067 a35.69693071179087,35.69693071179087 0 0,0 0.21485372602598943,0.5757011671976467 l -13.812999362628942 5.020041927633087" fill="#ffb711" stroke="none" /><path d="M 119.7369772167798 92.82701384747503 l 13.273368728311912 -4.823924608100311 a35.12276764739703,35.12276764739703 0 0,0 0.20161625872983838,0.569996313366639 l -13.35443806785156 4.594730668307058" fill="#ffb010" stroke="none" /><path d="M 119.85752413597 93.16781622104841 l 17.100096420466524 -5.883462640279071 a39.0839274005624,39.0839274005624 0 0,0 0.21340328027505492,0.6380486455402076 l -17.19883699451335 5.58824089181655" fill="#ffe215" stroke="none" /><path d="M 119.97218684219823 93.5106431181261 l 10.910586253544158 -3.5450643712244916 a32.472069289895,32.472069289895 0 0,0 0.1681504507607105,0.5330828801657661 l -10.969992188073075 3.3567313246323063" fill="#ff8c0c" stroke="none" /><path d="M 120.08093135843002 93.85539295169968 l 11.016602840070943 -3.3709938175256826 a32.52081322883309,32.52081322883309 0 0,0 0.15918799147884677,0.5367027706770594 l -11.072996728661492 3.180861660102093" fill="#ff8d0d" stroke="none" /><path d="M 120.28053869075195 94.5502522615342 l 23.482342333793877 -6.310130316500381 a45.3153890796077,45.3153890796077 0 0,0 0.19594302624537177,0.7550484103142535 l -23.587481691909552 5.904985480637277" fill="#d0ff1d" stroke="none" /><path d="M 120.45610955862082 95.25157060432595 l 23.29303452814687 -5.406958226878035 a44.91235360219998,44.91235360219998 0 0,0 0.16832639625916165,0.7545742289403558 l -23.382655311408065 5.005205828387715" fill="#d5ff1c" stroke="none" /><path d="M 120.53481517161879 95.60439243477599 l 17.727476340390737 -3.794678864304992 a39.12906520155732,39.12906520155732 0 0,0 0.13531334595833744,0.6598359304495506 l -17.790168982264074 3.4889672776920295" fill="#ffe315" stroke="none" /><path d="M 120.6074358757038 95.95851677861258 l 11.194475249314419 -2.1954348986077314 a32.407725912798654,32.407725912798654 0 0,0 0.102646496610357,0.5483416893524733 l -11.230607469834636 2.0024151317926955" fill="#ff8c0c" stroke="none" /><path d="M 120.67395015179393 96.31383870115 l 18.8773706095015 -3.3658315152101994 a40.17508651655197,40.17508651655197 0 0,0 0.11552850895231244,0.6818557995304706 l -18.932510979974037 3.0403899273638912" fill="#fff016" stroke="none" /><path d="M 120.78858239683441 97.02765380044208 l 32.22174429722738 -4.607056766870966 a53.54943590308558,53.54943590308558 0 0,0 0.12261291078172892,0.9136086036599756 l -32.296273207066946 4.051729821146326" fill="#74ff27" stroke="none" /><path d="M 120.83666639777658 97.38593545837742 l 22.081604035205427 -2.7702482263064856 a43.25469640329777,43.25469640329777 0 0,0 0.08632328843805438,0.7395652185934065 l -22.12601767664707 2.3897392693882265" fill="#e9ff1a" stroke="none" /><path d="M 120.87857604477298 97.74499172005257 l 17.938031415683238 -1.9374122680387338 a39.04235398628421,39.04235398628421 0 0,0 0.06641452878676044,0.6687852413221751 l -17.968723070152226 1.6283514960121237" fill="#ffe215" stroke="none" /><path d="M 120.94382443527127 98.46500227214037 l 22.39497002005879 -1.6413539085240907 a43.45503785016537,43.45503785016537 0 0,0 0.04825456193079099,0.7464767150946869 l -22.419905172993996 1.2556181291763684" fill="#e6ff1a" stroke="none" /><path d="M 120.96714384426684 98.82574320788733 l 7.552384820174414 -0.4229683946277385 a28.564219638195,28.564219638195 0 0,0 0.023268130077877012,0.4911534504444481 l -7.558546558485787 0.29290383756029065" fill="#ff5708" stroke="none" /><line stroke="#e1ed5e" stroke-width="0.3" x1="184.98032266829074" x2="189.97916517819016" y1="98.17113171792111" y2="98.06355123074" /><path d="M 185.9800911702706 98.14961562048488 a86.0,86.0 0 0,1 -9.607161424134198,41.387399972396054" fill="none" id="id88" stroke="none" /><text fill="#e1ed5e" style="font-size:6.75px; font-family:Arial;" text-anchor="middle"><textPath startOffset="21.466115282336823" xlink:href="#id88">April</textPath></text><path d="M 120.99513854157772 99.54816195383933 l 5.571420888536897 -0.11990299200121729 a26.5727109600908,26.5727109600908 0 0,0 0.00590545966255932,0.45738435891010354 l -5.572659355317172 0.02398237503065103" fill="#ff3b05" stroke="none" /><path d="M 120.99980553446 99.90962569577887 l 27.406548591733575 -0.11794622364555175 a48.40680238595385,48.40680238595385 0 0,0 -0.00358602827039621,0.8332666787137895 l -27.404518266173675 -0.3538299332719224" fill="#adff20" stroke="none" /><path d="M 120.99824983174949 100.27111621757518 l 16.86688423183214 0.21777461892555583 a37.86829005781783,37.86829005781783 0 0,0 -0.014025580299793452,0.6517136040718716 l -16.86063658884734 -0.5080780387875423" fill="#ffd313" stroke="none" /><path d="M 120.9764740272857 100.99374915477107 l 7.125402208681334 0.3375620904195018 a28.133393638400253,28.133393638400253 0 0,0 -0.027079930826173243,0.4835303561698916 l -7.118535926967631 -0.46016416292481677" fill="#ff5107" stroke="none" /><path d="M 120.95626037817324 101.35467743843564 l 11.376042299427517 0.7353825331248026 a32.39978622029331,32.39978622029331 0 0,0 -0.04076732621332956,0.5562377763894052 l -11.361698414549851 -0.9310934460109781" fill="#ff8c0c" stroke="none" /><path d="M 120.92983693683757 101.71520430193887 l 16.853690291436017 1.3811632732091539 a37.91018889388603,37.91018889388603 0 0,0 -0.05889691513692221,0.6499225507351548 l -16.82741878002202 -1.6710672124928792" fill="#ffd313" stroke="none" /><path d="M 120.89721153311464 102.0752229133903 l 6.216595480332978 0.6173465471037779 a27.247173450874993,27.247173450874993 0 0,0 -0.05036536018879091,0.4663206836422635 l -6.205047818643135 -0.7242635526308329" fill="#ff4506" stroke="none" /><path d="M 120.8583938346157 102.4346265915055 l 30.449631984772257 3.5541319393756208 a51.656352389848266,51.656352389848266 0 0,0 -0.11068847120743533,0.8822960228815462 l -30.383942004317973 -4.077745716544562" fill="#89ff25" stroke="none" /><path d="M 120.81339534386255 102.79330883721812 l 14.900986505794718 1.9998206252387383 a36.03458284685699,36.03458284685699 0 0,0 -0.08779731559906367,0.6140542208116594 l -14.864355139179052 -2.256020318030807" fill="#ffbb11" stroke="none" /><path d="M 120.76222939487914 103.15116336523771 l 20.245280753413365 3.0727040827726837 a41.4771312239976,41.4771312239976 0 0,0 -0.11320935218505562,0.704954744123107 l -20.18938964686702 -3.4207380565889958" fill="#feff18" stroke="none" /><path d="M 120.70491114924044 103.5080841355445 l 14.406469465090277 2.4409236347552974 a35.611792177528585,35.611792177528585 0 0,0 -0.10760451944483992,0.6035032899413274 l -14.362318503306248 -2.688545675429843" fill="#ffb610" stroke="none" /><path d="M 120.64145759157962 103.86396538481128 l 10.010677810967048 1.8739428825924742 a31.184563425214012,31.184563425214012 0 0,0 -0.10331010321984724,0.5267759905939857 l -9.976937774771535 -2.045982600254405" fill="#ff7b0b" stroke="none" /><path d="M 120.5718875245553 104.21870165774334 l 16.878220233127458 3.4612368744608504 a38.229465428128655,38.229465428128655 0 0,0 -0.1377461547938107,0.6435041771405147 l -16.816140039609202 -3.751254871017534" fill="#ffd814" stroke="none" /><path d="M 120.49622156327973 104.57218783832717 l 4.655085665625782 1.038431693423768 a25.769503426586628,25.769503426586628 0 0,0 -0.10030402982570812,0.4321071352887955 l -4.636521069869521 -1.1184074860611286" fill="#ff3004" stroke="none" /><path d="M 120.41448212921028 104.9243191809786 l 22.014900903764513 5.310367321668837 a43.646321177922474,43.646321177922474 0 0,0 -0.18245967486026024,0.7288357023722509 l -21.920229914609195 -5.6885308634384835" fill="#e4ff1a" stroke="none" /><path d="M 120.32669344350535 105.2749913415812 l 16.276036555684374 4.223803155447617 a37.81516812458155,37.81516812458155 0 0,0 -0.16892922215362396,0.6286484788467818 l -16.20091925718897 -4.5033425674699465" fill="#ffd213" stroke="none" /><path d="M 120.02730092923936 106.31721596034902 l 13.726427019358175 4.329729909768168 a35.39310111856744,35.39310111856744 0 0,0 -0.18827065026235806,0.5794374808457433 l -13.649864118079568 -4.565366290591706" fill="#ffb310" stroke="none" /><path d="M 119.79798401119884 107.00284435728193 l 31.654865910154143 11.196801603337377 a54.576761337781484,54.576761337781484 0 0,0 -0.32090028276780663,0.8829797569896128 l -31.45744136638111 -11.74002915733312" fill="#69ff28" stroke="none" /><path d="M 119.67450827220406 107.3425965602758 l 22.21230670366885 8.289711973567854 a44.70877250518395,44.70877250518395 0 0,0 -0.27529047796537276,0.7186965692175431 l -22.066321946109973 -8.670832109618543" fill="#d7ff1c" stroke="none" /><path d="M 119.41010516605496 108.01547362559984 l 20.581329248714926 8.499134876474777 a43.26715983893138,43.26715983893138 0 0,0 -0.29019700047185815,0.6859399863073404 l -20.43198126705076 -8.85214938844828" fill="#e8ff1a" stroke="none" /><path d="M 119.26925614724726 108.34839909993367 l 12.27994925420655 5.320284110484172 a34.382921082564835,34.382921082564835 0 0,0 -0.23995826750623575,0.541042546094009 l -12.186549901969041 -5.530874993070869" fill="#ffa60f" stroke="none" /><path d="M 119.12269723197855 108.67885076344098 l 7.164473465270989 3.2516017614784127 a28.867820158711154,28.867820158711154 0 0,0 -0.20925785641231648,0.4507228062592872 l -7.107440992018842 -3.3744446350165305" fill="#ff5b08" stroke="none" /><path d="M 118.97047184881838 109.00673069616215 l 22.22543060185604 10.552108014626274 a45.60318574880617,45.60318574880617 0 0,0 -0.3427768742115869,0.7062218880323203 l -22.040500471029738 -10.93311885862387" fill="#cdff1d" stroke="none" /><path d="M 118.64920377521936 109.65438752849418 l 30.839277346428073 15.96498907887698 a55.726674236652336,55.726674236652336 0 0,0 -0.4483277065357564,0.8480670640581164 l -30.559897131667423 -16.49347115802123" fill="#5dff2a" stroke="none" /><line stroke="#e1ed5e" stroke-width="0.3" x1="174.80103733775053" x2="179.2010983576182" y1="140.37084112569926" y2="142.7455964860345" /><path d="M 175.68104954172406 140.8457921977663 a86.0,86.0 0 0,1 -30.038265399797805,32.042727171017184" fill="none" id="id89" stroke="none" /><text fill="#e1ed5e" style="font-size:6.75px; font-family:Arial;" text-anchor="middle"><textPath startOffset="22.206326154141568" xlink:href="#id89">May</textPath></text><path d="M 118.48025628344425 109.97397251340804 l 10.800131191182528 5.828934944942179 a33.27270615386524,33.27270615386524 0 0,0 -0.27635927974390617,0.5016723667143101 l -10.698195501987112 -6.013977830054294" fill="#ff970d" stroke="none" /><path d="M 118.30583269289576 110.29060199501025 l 14.79716086587559 8.318206316064572 a37.97493817388495,37.97493817388495 0 0,0 -0.32522461080047665,0.567056522194657 l -14.651784258922733 -8.571682684117544" fill="#ffd413" stroke="none" /><path d="M 117.94076556474637 110.91462005526583 l 15.436997236648141 9.391403004746017 a39.06929257281078,39.06929257281078 0 0,0 -0.35448008277515636,0.5715347623490925 l -15.273052514205022 -9.655734098460384" fill="#ffe215" stroke="none" /><path d="M 117.75023020441432 111.22182372390056 l 8.616316220702956 5.447297340068717 a31.193819378734773,31.193819378734773 0 0,0 -0.2908380060500471,0.451387044054719 l -8.521273351275859 -5.594805984044888" fill="#ff7b0b" stroke="none" /><path d="M 117.55443506779139 111.5257021239791 l 9.523976573766872 6.253150078660027 a32.39333207116803,32.39333207116803 0 0,0 -0.31004567389067,0.4634762149171023 l -9.41492779446548 -6.416163207782937" fill="#ff8b0c" stroke="none" /><path d="M 116.93607887273984 112.41649034213515 l 9.964956472240958 7.305692582509832 a33.35611191288733,33.35611191288733 0 0,0 -0.3434706375247384,0.4601350481337793 l -9.837724568021128 -7.476140510152926" fill="#ff980e" stroke="none" /><path d="M 116.71984013943494 112.70617746262583 l 9.477757641858974 7.202585045127599 a32.90399602024933,32.90399602024933 0 0,0 -0.3465780764744266,0.447998883038059 l -9.352372748166479 -7.36466192227891" fill="#ff920d" stroke="none" /><path d="M 116.0416608686014 113.55231037782055 l 48.12498260580419 40.656931133461654 a84.0,84.0 0 0,0 -0.942629961716885,1.096491603353888 l -47.41801013451653 -41.47929983597707" fill="#4dd2ff" stroke="none" /><path d="M 115.32070863581623 114.36230785411682 l 8.513402952796563 7.980839333264768 a32.669268456080324,32.669268456080324 0 0,0 -0.3881318310016139,0.40695467307458083 l -8.374764570415985 -8.126201122921856" fill="#ff8f0d" stroke="none" /><path d="M 115.07121518719521 114.62390073753431 l 8.187886901840463 7.944869993257397 a32.40887598000313,32.40887598000313 0 0,0 -0.39193037554925053,0.3970234012027385 l -8.049915901235677 -8.0846338884408" fill="#ff8c0c" stroke="none" /><path d="M 114.81725581225074 114.88116024355365 l 8.13187648895334 8.166947958936497 a32.52503597372126,32.52503597372126 0 0,0 -0.40013545679951873,0.3916167618283364 l -7.990091079778028 -8.305714823687406" fill="#ff8d0d" stroke="none" /><path d="M 114.29624159901734 115.38237550388516 l 19.055299784528422 20.502995461748885 a48.99066402897124,48.99066402897124 0 0,0 -0.6226490619642822,0.568775155237604 l -18.699551173097277 -20.827963383573074" fill="#a6ff21" stroke="none" /><path d="M 113.75828350139079 115.86535959552629 l 11.089997122011793 12.788426131521614 a37.927252555793416,37.927252555793416 0 0,0 -0.4969093598419137,0.42347693667561714 l -10.868222285592832 -12.977427458420179" fill="#ffd413" stroke="none" /><path d="M 113.48314897796784 116.09983520530334 l 10.193621315931365 12.171906102938992 a36.876561772354044,36.876561772354044 0 0,0 -0.49015952129671153,0.40336791613688117 l -9.982591666089963 -12.345569137933051" fill="#ffc612" stroke="none" /><path d="M 113.20401910651253 116.32954008644616 l 7.7689272319865195 9.607908595106114 a33.35589486471197,33.35589486471197 0 0,0 -0.449577910245929,0.35717188205163325 l -7.602391829023239 -9.740214391162873" fill="#ff980e" stroke="none" /><path d="M 112.92097659922987 116.55440617244103 l 7.233233340290323 9.267247079632147 a32.75591480872663,32.75591480872663 0 0,0 -0.4474633776446765,0.3430958371606695 l -7.072641234152154 -9.390382258620187" fill="#ff900d" stroke="none" /><path d="M 112.63410532772338 116.77436683061366 l 10.945880185863443 14.532901599191039 a39.1938869386134,39.1938869386134 0 0,0 -0.5423967910512657,0.40125217914381867 l -10.694098424393612 -14.719163727074628" fill="#ffe415" stroke="none" /><path d="M 112.04921762599082 117.19931262002967 l 16.696844634197994 23.833435459924445 a50.10012485473096,50.10012485473096 0 0,0 -0.7105703460721707,0.4887367633547815 l -16.28411740350294 -24.11731301264432" fill="#9aff23" stroke="none" /><line stroke="#e1ed5e" stroke-width="0.3" x1="143.8653032363475" x2="146.44561519142675" y1="172.8068346515853" y2="177.08958963109032" /><path d="M 144.38136562736335 173.6633856474863 a86.0,86.0 0 0,1 -40.68145358897372,12.25698825130547" fill="none" id="id90" stroke="none" /><text fill="#e1ed5e" style="font-size:6.75px; font-family:Arial;" text-anchor="middle"><textPath startOffset="21.466115282336833" xlink:href="#id90">June</textPath></text><line stroke="#e1ed5e" stroke-width="0.3" x1="102.19456741930631" x2="102.32365962044197" y1="184.97166512339345" y2="189.96999836594603" /><path d="M 102.22038585953345 185.97133177190398 a86.0,86.0 0 0,1 -42.740103519485714,-10.115201625700543" fill="none" id="id91" stroke="none" /><text fill="#e1ed5e" style="font-size:6.75px; font-family:Arial;" text-anchor="middle"><textPath startOffset="22.20632615414155" xlink:href="#id91">July</textPath></text><line stroke="#e1ed5e" stroke-width="0.3" x1="58.666819895761336" x2="56.23545636021788" y1="174.27360380694188" y2="178.64263932499728" /><path d="M 58.180547188652646 175.14741091055294 a86.0,86.0 0 0,1 -31.652253787137756,-30.449443065178592" fill="none" id="id92" stroke="none" /><text fill="#e1ed5e" style="font-size:6.75px; font-family:Arial;" text-anchor="middle"><textPath startOffset="22.20632615414155" xlink:href="#id92">August</textPath></text><line stroke="#e1ed5e" stroke-width="0.3" x1="26.63291911575756" x2="22.317208475507996" y1="142.92168965132927" y2="145.44649492493687" /><path d="M 25.769776987707644 143.4266507060508 a86.0,86.0 0 0,1 -11.730757126820373,-40.83630448921669" fill="none" id="id93" stroke="none" /><text fill="#e1ed5e" style="font-size:6.75px; font-family:Arial;" text-anchor="middle"><textPath startOffset="21.46611528233685" xlink:href="#id93">September</textPath></text><line stroke="#e1ed5e" stroke-width="0.3" x1="15.007084014347285" x2="10.007500721073583" y1="101.09737516637583" y2="101.16192664675087" /><path d="M 14.007167355692545 101.11028546245083 a86.0,86.0 0 0,1 10.666146001902534,-42.60595125391555" fill="none" id="id94" stroke="none" /><text fill="#e1ed5e" style="font-size:6.75px; font-family:Arial;" text-anchor="middle"><textPath startOffset="22.20632615414155" xlink:href="#id94">October</textPath></text><line stroke="#e1ed5e" stroke-width="0.3" x1="26.266209847984243" x2="21.928928074336255" y1="57.711370442889674" y2="55.22380399835377" /><path d="M 25.398753493254645 57.213857153982495 a86.0,86.0 0 0,1 29.58750427330803,-30.492523968695096" fill="none" id="id95" stroke="none" /><text fill="#e1ed5e" style="font-size:6.75px; font-family:Arial;" text-anchor="middle"><textPath startOffset="21.46611528233685" xlink:href="#id95">November</textPath></text><line stroke="#e1ed5e" stroke-width="0.3" x1="56.762969772571076" x2="54.21961505331055" y1="26.818313649435495" y2="22.513508569990535" /><path d="M 56.25429882871897 25.957352633546506 a86.0,86.0 0 0,1 42.265352541879196,-11.944610805530505" fill="none" id="id96" stroke="none" /><text fill="#e1ed5e" style="font-size:6.75px; font-family:Arial;" text-anchor="middle"><textPath startOffset="22.20632615414155" xlink:href="#id96">December</textPath></text></svg>