<?xml version="1.0" encoding="utf-8" ?>
<svg baseProfile="full" height="200mm" version="1.1" viewBox="0,0,200,200" width="200mm" xmlns="http://www.w3.org/2000/svg" xmlns:ev="http://www.w3.org/2001/xml-events" xmlns:xlink="http://www.w3.org/1999/xlink"><defs /><rect fill="#1a1a1a" height="200" width="200" x="0" y="0" /><text alignment-baseline="middle" fill="#e1ed5e" style="dominant-baseline: central; font-size:9.0px; font-family:Arial;" text-anchor="middle" x="100.0" y="100.0">2023</text><line stroke="#e1ed5e" stroke-width="0.3" x1="100.0" x2="100.0" y1="15.0" y2="10.0" /><path d="M 100.0 14.0 a86.0,86.0 0 0,1 42.46469731375804,11.215312516191453" fill="none" id="id85" stroke="none" /><text fill="#e1ed5e" style="font-size:6.75px; font-family:Arial;" text-anchor="middle"><textPath startOffset="22.20632615414155" xlink:href="#id85">January</textPath></text><path d="M 100.0 79.0 l 0.0 -17.805310193750373 a38.80531019375037,38.80531019375037 0 0,0 0.6679696251026674,0.005749425448795521 l -0.30648914583013903 17.802672144910137" fill="#ffd313" stroke="none" /><path d="M 100.36148047927253 79.00311137660856 l 0.34432810853090307 -20.000579171733605 a41.00354291247199,41.00354291247199 0 0,0 0.7055994414862683,0.018223551852465582 l -0.6885541852120391 19.991688827738777" fill="#ffef16" stroke="none" /><path d="M 101.08401301168833 79.027996857942 l 0.9199020843294667 -17.79700907177864 a38.82076742864136,38.82076742864136 0 0,0 0.6670479134011845,0.040238151765195324 l -1.2261120465702633 17.77853765063314" fill="#ffd313" stroke="none" /><path d="M 101.80526077348638 79.07773832637324 l 1.531764369464376 -17.752546020473005 a38.818507016374085,38.818507016374085 0 0,0 0.6652288228125756,0.06317149238182468 l -1.8371183193671958 17.723548983576002" fill="#ffd313" stroke="none" /><path d="M 102.16513564639614 79.11191278185805 l 1.2580504338302616 -12.137007318875375 a33.20203415634028,33.20203415634028 0 0,0 0.5679655323888009,0.06381754531224856 l -1.4667826697287878 12.113553820092525" fill="#ff880c" stroke="none" /><path d="M 102.52436894288641 79.15227682838746 l 2.9399942509096455 -24.28020137144222 a45.45754985343312,45.45754985343312 0 0,0 0.7759934333607663,0.10074621881088712 l -3.357502412778258 24.2259968294672" fill="#d8ff1c" stroke="none" /><path d="M 103.2404852339499 79.25152402106235 l 3.255911568062332 -20.847249125447135 a42.09997052693436,42.09997052693436 0 0,0 0.7150395194938873,0.1179876474115117 l -3.6142802936950944 20.788115215096" fill="#fffd17" stroke="none" /><path d="M 103.95276090670814 79.375362276772 l 3.9662771583424616 -20.695162553824524 a42.07180836155288,42.07180836155288 0 0,0 0.7100791475141051,0.14243519691353512 l -4.3219227153236925 20.623823400833782" fill="#fffd17" stroke="none" /><path d="M 105.01212808612495 79.60689891045804 l 3.222655614127573 -13.11218320569574 a34.502401920658315,34.502401920658315 0 0,0 0.5755183196106346,0.14671243411868032 l -3.4478828224232325 13.054767775408191" fill="#ff9a0e" stroke="none" /><path d="M 105.36241919743992 79.69619591428918 l 5.6844132700470515 -21.522974823070633 a43.26097480927597,43.26097480927597 0 0,0 0.7183425347730669,0.19635015029993644 l -6.054053694043829 21.4219381319444" fill="#f3ff19" stroke="none" /><path d="M 105.71112130821622 79.79150937346287 l 3.0934442412126364 -10.945983385491434 a32.37470656979538,32.37470656979538 0 0,0 0.5349685656215537,0.15617199410890004 l -3.2814030245576173 10.89111306246383" fill="#ff7d0b" stroke="none" /><path d="M 106.0581310904928 79.89281104454417 l 5.096193822428207 -16.914479170317094 a38.66552566664367,38.66552566664367 0 0,0 0.6356145253311691,0.19748852703336373 l -5.386593720470095 16.824250508401207" fill="#ffd113" stroke="none" /><path d="M 106.74666289553966 80.11325718540242 l 10.592503310432171 -31.222901211886995 a53.97075501817893,53.97075501817893 0 0,0 0.877199521047469,0.3060376886293595 l -11.128384835542914 31.03594267008543" fill="#76ff27" stroke="none" /><path d="M 107.08798089147638 80.2323363322302 l 0.9270720448141371 -2.585510409560411 a23.74669376782726,23.74669376782726 0 0,0 0.3835856300244389,0.14127782475029774 l -0.9714400006111524 2.5691693170037886" fill="#ff0000" stroke="none" /><path d="M 108.43124777332544 80.76684994638697 l 8.443647928987993 -19.261436976374416 a42.03088549594493,42.03088549594493 0 0,0 0.6601208387256138,0.2961769782755929 l -8.773950886180385 19.11323966758229" fill="#fffc17" stroke="none" /><path d="M 108.76106565485865 80.91482961587045 l 4.4682109638205745 -9.73358389449568 a31.71016174706956,31.71016174706956 0 0,0 0.49410742127881746,0.23199005954758795 l -4.63509659639899 9.655228852308088" fill="#ff730a" stroke="none" /><path d="M 109.08828744355905 81.06846463323043 l 19.15130113967162 -39.8934933668168 a65.25226715492262,65.25226715492262 0 0,0 1.0083921706897072,0.49481365875832456 l -19.83516457737176 39.55792454792364" fill="#35ff66" stroke="none" /><path d="M 109.73455568895987 81.39251694778311 l 12.154579679050828 -23.233329040508465 a47.22062900616477,47.22062900616477 0 0,0 0.71697768879355,0.38298465084372346 l -12.552702414372689 23.020665663162987" fill="#c3ff1e" stroke="none" /><path d="M 110.05341064243156 81.56283822128135 l 10.104873889897064 -18.53154131347824 a42.10749866241555,42.10749866241555 0 0,0 0.6333687855661226,0.35246904343371305 l -10.422366764535221 18.354856872484348" fill="#fffd17" stroke="none" /><path d="M 110.36928655335952 81.73862282372117 l 10.46157680204695 -18.423909770233205 a42.18690728744574,42.18690728744574 0 0,0 0.6283905926997753,0.3640043910979329 l -10.777164127212055 18.24110122174522" fill="#fffe18" stroke="none" /><line stroke="#e1ed5e" stroke-width="0.3" x1="143.23703022742887" x2="145.7803849466894" y1="26.81831364943548" y2="22.513508569990506" /><path d="M 143.74570117128098 25.957352633546492 a86.0,86.0 0 0,1 28.547481713284135,27.462654790039103" fill="none" id="id86" stroke="none" /><text fill="#e1ed5e" style="font-size:6.75px; font-family:Arial;" text-anchor="middle"><textPath startOffset="19.985693538727396" xlink:href="#id86">February</textPath></text><path d="M 110.68208982089419 81.91981866633111 l 10.834023946107376 -18.33734042713143 a42.29868842922814,42.29868842922814 0 0,0 0.6236799279490536,0.3757601781869609 l -11.148065940274066 18.148133639485856" fill="#ffff18" stroke="none" /><path d="M 111.2981086023043 82.29822771554956 l 11.464370616259192 -17.96227007343288 a42.30903423006049,42.30903423006049 0 0,0 0.6105253561395204,0.39710267450077513 l -11.771862998182993 17.76226847477258" fill="#ffff18" stroke="none" /><path d="M 111.60114157652 82.49532879139004 l 33.84324049046354 -51.06521573863825 a82.26190647808,82.26190647808 0 0,0 1.1735848100000406,0.7924097024817354 l -34.71722999487013 50.47509412385785" fill="#4be2ff" stroke="none" /><path d="M 111.90073688211348 82.69761687909136 l 12.211779155390667 -17.75460491459682 a42.54886414207161,42.54886414207161 0 0,0 0.5998758913596761,0.42025139744017737 l -12.515586186333994 17.541768674392706" fill="#fcff18" stroke="none" /><path d="M 112.19680574252982 82.90503203632743 l 12.233665436838102 -17.146630284664834 a42.06346363111899,42.06346363111899 0 0,0 0.5857931880620391,0.42560366374291103 l -12.527003941253929 16.933507386105248" fill="#fffc17" stroke="none" /><path d="M 112.77801427241765 83.33499621200491 l 14.601495785339925 -19.043176614565212 a44.99679676004327,44.99679676004327 0 0,0 0.6106010570819026,0.47658381024590646 l -14.927129397581258 18.789014415096084" fill="#ddff1b" stroke="none" /><path d="M 113.06298171725822 83.55741782278167 l 12.858041719651563 -16.184620953281645 a41.6705392350007,41.6705392350007 0 0,0 0.5577831885211298,0.4510218805634057 l -13.134728306737184 15.96089297545411" fill="#fff717" stroke="none" /><path d="M 113.34407831869373 83.78471172551755 l 13.522895293066737 -16.432580823175535 a42.281409953700035,42.281409953700035 0 0,0 0.5579987664480819,0.46730791971482016 l -13.803751596473937 16.197371746066896" fill="#ffff18" stroke="none" /><path d="M 113.6212207817346 84.01681056812373 l 7.224528602081508 -8.477287832961196 a32.13814268741273,32.13814268741273 0 0,0 0.4179583841860745,0.3624493921358542 l -7.3693807849143464 8.35167344740567" fill="#ff790b" stroke="none" /><path d="M 113.89432698308785 84.25364557470407 l 41.68298094926353 -47.23906327588782 a84.0,84.0 0 0,0 1.0759560496160399,0.9660039649228103 l -42.48994798647556 46.51456030219571" fill="#4dd2ff" stroke="none" /><line stroke="#e1ed5e" stroke-width="0.3" x1="172.23445277983987" x2="176.4835382374775" y1="55.19839476539836" y2="52.563006222186495" /><path d="M 173.08426987136738 54.67131705675599 a86.0,86.0 0 0,1 12.851231095245387,41.99856678651699" fill="none" id="id87" stroke="none" /><text fill="#e1ed5e" style="font-size:6.75px; font-family:Arial;" text-anchor="middle"><textPath startOffset="22.20632615414155" xlink:href="#id87">March</textPath></text><line stroke="#e1ed5e" stroke-width="0.3" x1="184.98032266829074" x2="189.97916517819016" y1="98.17113171792111" y2="98.06355123074" /><path d="M 185.9800911702706 98.14961562048488 a86.0,86.0 0 0,1 -9.607161424134198,41.387399972396054" fill="none" id="id88" stroke="none" /><text fill="#e1ed5e" style="font-size:6.75px; font-family:Arial;" text-anchor="middle"><textPath startOffset="21.466115282336823" xlink:href="#id88">April</textPath></text><line stroke="#e1ed5e" stroke-width="0.3" x1="174.80103733775053" x2="179.2010983576182" y1="140.37084112569926" y2="142.7455964860345" /><path d="M 175.68104954172406 140.8457921977663 a86.0,86.0 0 0,1 -30.038265399797805,32.042727171017184" fill="none" id="id89" stroke="none" /><text fill="#e1ed5e" style="font-size:6.75px; font-family:Arial;" text-anchor="middle"><textPath startOffset="22.206326154141568" xlink:href="#id89">May</textPath></text><line stroke="#e1ed5e" stroke-width="0.3" x1="143.8653032363475" x2="146.44561519142675" y1="172.8068346515853" y2="177.08958963109032" /><path d="M 144.38136562736335 173.6633856474863 a86.0,86.0 0 0,1 -40.68145358897372,12.25698825130547" fill="none" id="id90" stroke="none" /><text fill="#e1ed5e" style="font-size:6.75px; font-family:Arial;" text-anchor="middle"><textPath startOffset="21.466115282336833" xlink:href="#id90">June</textPath></text><line stroke="#e1ed5e" stroke-width="0.3" x1="102.19456741930631" x2="102.32365962044197" y1="184.97166512339345" y2="189.96999836594603" /><path d="M 102.22038585953345 185.97133177190398 a86.0,86.0 0 0,1 -42.740103519485714,-10.115201625700543" fill="none" id="id91" stroke="none" /><text fill="#e1ed5e" style="font-size:6.75px; font-family:Arial;" text-anchor="middle"><textPath startOffset="22.20632615414155" xlink:href="#id91">July</textPath></text><line stroke="#e1ed5e" stroke-width="0.3" x1="58.666819895761336" x2="56.23545636021788" y1="174.27360380694188" y2="178.64263932499728" /><path d="M 58.180547188652646 175.14741091055294 a86.0,86.0 0 0,1 -31.652253787137756,-30.449443065178592" fill="none" id="id92" stroke="none" /><text fill="#e1ed5e" style="font-size:6.75px; font-family:Arial;" text-anchor="middle"><textPath startOffset="22.20632615414155" xlink:href="#id92">August</textPath></text><line stroke="#e1ed5e" stroke-width="0.3" x1="26.63291911575756" x2="22.317208475507996" y1="142.92168965132927" y2="145.44649492493687" /><path d="M 25.769776987707644 143.4266507060508 a86.0,86.0 0 0,1 -11.730757126820373,-40.83630448921669" fill="none" id="id93" stroke="none" /><text fill="#e1ed5e" style="font-size:6.75px; font-family:Arial;" text-anchor="middle"><textPath startOffset="21.46611528233685" xlink:href="#id93">September</textPath></text><line stroke="#e1ed5e" stroke-width="0.3" x1="15.007084014347285" x2="10.007500721073583" y1="101.09737516637583" y2="101.16192664675087" /><path d="M 14.007167355692545 101.11028546245083 a86.0,86.0 0 0,1 10.666146001902534,-42.60595125391555" fill="none" id="id94" stroke="none" /><text fill="#e1ed5e" style="font-size:6.75px; font-family:Arial;" text-anchor="middle"><textPath startOffset="22.20632615414155" xlink:href="#id94">October</textPath></text><line stroke="#e1ed5e" stroke-width="0.3" x1="26.266209847984243" x2="21.928928074336255" y1="57.711370442889674" y2="55.22380399835377" /><path d="M 25.398753493254645 57.213857153982495 a86.0,86.0 0 0,1 29.58750427330803,-30.492523968695096" fill="none" id="id95" stroke="none" /><text fill="#e1ed5e" style="font-size:6.75px; font-family:Arial;" text-anchor="middle"><textPath startOffset="21.46611528233685" xlink:href="#id95">November</textPath></text><line stroke="#e1ed5e" stroke-width="0.3" x1="56.762969772571076" x2="54.21961505331055" y1="26.818313649435495" y2="22.513508569990535" /><path d="M 56.25429882871897 25.957352633546506 a86.0,86.0 0 0,1 42.265352541879196,-11.944610805530505" fill="none" id="id96" stroke="none" /><text fill="#e1ed5e" style="font-size:6.75px; font-family:Arial;" text-anchor="middle"><textPath startOffset="22.20632615414155" xlink:href="#id96">December</textPath></text></svg>