<?xml version="1.0" encoding="utf-8" ?>
<svg baseProfile="full" height="98mm" version="1.1" viewBox="0,0,200,98" width="200mm" xmlns="http://www.w3.org/2000/svg" xmlns:ev="http://www.w3.org/2001/xml-events" xmlns:xlink="http://www.w3.org/1999/xlink"><defs /><rect fill="#222222" height="98" width="200" x="0" y="0" /><text fill="#FFFFFF" style="font-size:12px; font-family:Arial; font-weight:bold;" x="10" y="20">2022 Workouts</text><text fill="#FFFFFF" style="font-size:4px; font-family:Arial" x="10" y="78">ATHLETE</text><text fill="#FFFFFF" style="font-size:9px; font-family:Arial" x="10" y="88">xxcol</text><text fill="#FFFFFF" style="font-size:4px; font-family:Arial" x="120" y="78">STATISTICS</text><text fill="#FFFFFF" style="font-size:3px; font-family:Arial" x="120" y="83">Number: 639</text><text fill="#FFFFFF" style="font-size:3px; font-family:Arial" x="120" y="88">Weekly: 13.3</text><text fill="#FFFFFF" style="font-size:3px; font-family:Arial" x="141" y="83">Total: 6083.4 km</text><text fill="#FFFFFF" style="font-size:3px; font-family:Arial" x="141" y="88">Avg: 9.5 km</text><text fill="#FFFFFF" style="font-size:3px; font-family:Arial" x="167" y="83">Min: 0.5 km</text><text fill="#FFFFFF" style="font-size:3px; font-family:Arial" x="167" y="88">Max: 49.7 km</text><text alignment-baseline="hanging" fill="#FFFFFF" style="font-size:10.0px; font-family:Arial;" x="10" y="30">2022</text><text alignment-baseline="hanging" fill="#FFFFFF" style="font-size:4.125px; font-family:Arial;" x="175" y="35">6083.4 km</text><text fill="#FFFFFF" style="font-size:2.5px; font-family:Arial" x="10.0" y="44">Jan</text><text fill="#FFFFFF" style="font-size:2.5px; font-family:Arial" x="25.5" y="44">Feb</text><text fill="#FFFFFF" style="font-size:2.5px; font-family:Arial" x="41.0" y="44">Mar</text><text fill="#FFFFFF" style="font-size:2.5px; font-family:Arial" x="56.5" y="44">Apr</text><text fill="#FFFFFF" style="font-size:2.5px; font-family:Arial" x="72.0" y="44">May</text><text fill="#FFFFFF" style="font-size:2.5px; font-family:Arial" x="87.5" y="44">Jun</text><text fill="#FFFFFF" style="font-size:2.5px; font-family:Arial" x="103.0" y="44">Jul</text><text fill="#FFFFFF" style="font-size:2.5px; font-family:Arial" x="118.5" y="44">Aug</text><text fill="#FFFFFF" style="font-size:2.5px; font-family:Arial" x="134.0" y="44">Sep</text><text fill="#FFFFFF" style="font-size:2.5px; font-family:Arial" x="149.5" y="44">Oct</text><text fill="#FFFFFF" style="font-size:2.5px; font-family:Arial" x="165.0" y="44">Nov</text><text fill="#FFFFFF" style="font-size:2.5px; font-family:Arial" x="180.5" y="44">Dec</text><rect fill="#444444" height="2.6" width="2.6" x="10.0" y="45.5"><title>2021-12-27</title></rect><rect fill="#444444" height="2.6" width="2.6" x="10.0" y="49.0"><title>2021-12-28</title></rect><rect fill="#444444" height="2.6" width="2.6" x="10.0" y="52.5"><title>2021-12-29</title></rect><rect fill="#444444" height="2.6" width="2.6" x="10.0" y="56.0"><title>2021-12-30</title></rect><rect fill="#444444" height="2.6" width="2.6" x="10.0" y="59.5"><title>2021-12-31</title></rect><rect fill="#444444" height="2.6" width="2.6" x="10.0" y="63.0"><title>2022-01-01</title></rect><rect fill="red" height="2.6" width="2.6" x="10.0" y="66.5"><title>2022-01-02 58.2 km</title></rect><rect fill="#ffd800" height="2.6" width="2.6" x="13.5" y="45.5"><title>2022-01-03 15.6 km</title></rect><rect fill="red" height="2.6" width="2.6" x="13.5" y="49.0"><title>2022-01-04 37.0 km</title></rect><rect fill="red" height="2.6" width="2.6" x="13.5" y="52.5"><title>2022-01-05 36.5 km</title></rect><rect fill="red" height="2.6" width="2.6" x="13.5" y="56.0"><title>2022-01-06 29.9 km</title></rect><rect fill="red" height="2.6" width="2.6" x="13.5" y="59.5"><title>2022-01-07 38.4 km</title></rect><rect fill="#444444" height="2.6" width="2.6" x="13.5" y="63.0"><title>2022-01-08</title></rect><rect fill="red" height="2.6" width="2.6" x="13.5" y="66.5"><title>2022-01-09 40.3 km</title></rect><rect fill="red" height="2.6" width="2.6" x="17.0" y="45.5"><title>2022-01-10 29.1 km</title></rect><rect fill="red" height="2.6" width="2.6" x="17.0" y="49.0"><title>2022-01-11 36.6 km</title></rect><rect fill="red" height="2.6" width="2.6" x="17.0" y="52.5"><title>2022-01-12 38.6 km</title></rect><rect fill="red" height="2.6" width="2.6" x="17.0" y="56.0"><title>2022-01-13 29.1 km</title></rect><rect fill="red" height="2.6" width="2.6" x="17.0" y="59.5"><title>2022-01-14 36.1 km</title></rect><rect fill="#444444" height="2.6" width="2.6" x="17.0" y="63.0"><title>2022-01-15</title></rect><rect fill="red" height="2.6" width="2.6" x="17.0" y="66.5"><title>2022-01-16 30.9 km</title></rect><rect fill="red" height="2.6" width="2.6" x="20.5" y="45.5"><title>2022-01-17 25.1 km</title></rect><rect fill="red" height="2.6" width="2.6" x="20.5" y="49.0"><title>2022-01-18 37.1 km</title></rect><rect fill="red" height="2.6" width="2.6" x="20.5" y="52.5"><title>2022-01-19 35.0 km</title></rect><rect fill="red" height="2.6" width="2.6" x="20.5" y="56.0"><title>2022-01-20 46.8 km</title></rect><rect fill="red" height="2.6" width="2.6" x="20.5" y="59.5"><title>2022-01-21 40.2 km</title></rect><rect fill="#ffd000" height="2.6" width="2.6" x="20.5" y="63.0"><title>2022-01-22 18.9 km</title></rect><rect fill="red" height="2.6" width="2.6" x="20.5" y="66.5"><title>2022-01-23 56.8 km</title></rect><rect fill="#444444" height="2.6" width="2.6" x="24.0" y="45.5"><title>2022-01-24</title></rect><rect fill="red" height="2.6" width="2.6" x="24.0" y="49.0"><title>2022-01-25 24.0 km</title></rect><rect fill="red" height="2.6" width="2.6" x="24.0" y="52.5"><title>2022-01-26 30.5 km</title></rect><rect fill="#ffd300" height="2.6" width="2.6" x="24.0" y="56.0"><title>2022-01-27 17.5 km</title></rect><rect fill="red" height="2.6" width="2.6" x="24.0" y="59.5"><title>2022-01-28 25.1 km</title></rect><rect fill="#444444" height="2.6" width="2.6" x="24.0" y="63.0"><title>2022-01-29</title></rect><rect fill="#ffce00" height="2.6" width="2.6" x="24.0" y="66.5"><title>2022-01-30 19.5 km</title></rect><rect fill="#4dd2ff" height="2.6" width="2.6" x="27.5" y="45.5"><title>2022-01-31 1.5 km</title></rect><rect fill="#444444" height="2.6" width="2.6" x="27.5" y="49.0"><title>2022-02-01</title></rect><rect fill="#444444" height="2.6" width="2.6" x="27.5" y="52.5"><title>2022-02-02</title></rect><rect fill="#444444" height="2.6" width="2.6" x="27.5" y="56.0"><title>2022-02-03</title></rect><rect fill="#444444" height="2.6" width="2.6" x="27.5" y="59.5"><title>2022-02-04</title></rect><rect fill="#ffd800" height="2.6" width="2.6" x="27.5" y="63.0"><title>2022-02-05 15.8 km</title></rect><rect fill="red" height="2.6" width="2.6" x="27.5" y="66.5"><title>2022-02-06 48.8 km</title></rect><rect fill="red" height="2.6" width="2.6" x="31.0" y="45.5"><title>2022-02-07 20.5 km</title></rect><rect fill="red" height="2.6" width="2.6" x="31.0" y="49.0"><title>2022-02-08 20.5 km</title></rect><rect fill="red" height="2.6" width="2.6" x="31.0" y="52.5"><title>2022-02-09 31.7 km</title></rect><rect fill="red" height="2.6" width="2.6" x="31.0" y="56.0"><title>2022-02-10 30.2 km</title></rect><rect fill="red" height="2.6" width="2.6" x="31.0" y="59.5"><title>2022-02-11 38.9 km</title></rect><rect fill="#ffd400" height="2.6" width="2.6" x="31.0" y="63.0"><title>2022-02-12 17.1 km</title></rect><rect fill="#444444" height="2.6" width="2.6" x="31.0" y="66.5"><title>2022-02-13</title></rect><rect fill="red" height="2.6" width="2.6" x="34.5" y="45.5"><title>2022-02-14 20.6 km</title></rect><rect fill="red" height="2.6" width="2.6" x="34.5" y="49.0"><title>2022-02-15 30.8 km</title></rect><rect fill="#ffd100" height="2.6" width="2.6" x="34.5" y="52.5"><title>2022-02-16 18.5 km</title></rect><rect fill="red" height="2.6" width="2.6" x="34.5" y="56.0"><title>2022-02-17 31.1 km</title></rect><rect fill="red" height="2.6" width="2.6" x="34.5" y="59.5"><title>2022-02-18 44.8 km</title></rect><rect fill="#444444" height="2.6" width="2.6" x="34.5" y="63.0"><title>2022-02-19</title></rect><rect fill="#444444" height="2.6" width="2.6" x="34.5" y="66.5"><title>2022-02-20</title></rect><rect fill="red" height="2.6" width="2.6" x="38.0" y="45.5"><title>2022-02-21 20.9 km</title></rect><rect fill="red" height="2.6" width="2.6" x="38.0" y="49.0"><title>2022-02-22 20.6 km</title></rect><rect fill="red" height="2.6" width="2.6" x="38.0" y="52.5"><title>2022-02-23 31.9 km</title></rect><rect fill="red" height="2.6" width="2.6" x="38.0" y="56.0"><title>2022-02-24 34.3 km</title></rect><rect fill="red" height="2.6" width="2.6" x="38.0" y="59.5"><title>2022-02-25 20.5 km</title></rect><rect fill="#ffd100" height="2.6" width="2.6" x="38.0" y="63.0"><title>2022-02-26 18.6 km</title></rect><rect fill="#ffd300" height="2.6" width="2.6" x="38.0" y="66.5"><title>2022-02-27 17.8 km</title></rect><rect fill="red" height="2.6" width="2.6" x="41.5" y="45.5"><title>2022-02-28 20.8 km</title></rect><rect fill="red" height="2.6" width="2.6" x="41.5" y="49.0"><title>2022-03-01 38.7 km</title></rect><rect fill="red" height="2.6" width="2.6" x="41.5" y="52.5"><title>2022-03-02 41.2 km</title></rect><rect fill="red" height="2.6" width="2.6" x="41.5" y="56.0"><title>2022-03-03 30.1 km</title></rect><rect fill="red" height="2.6" width="2.6" x="41.5" y="59.5"><title>2022-03-04 37.9 km</title></rect><rect fill="#4dd2ff" height="2.6" width="2.6" x="41.5" y="63.0"><title>2022-03-05 1.8 km</title></rect><rect fill="red" height="2.6" width="2.6" x="41.5" y="66.5"><title>2022-03-06 47.6 km</title></rect><rect fill="red" height="2.6" width="2.6" x="45.0" y="45.5"><title>2022-03-07 32.9 km</title></rect><rect fill="red" height="2.6" width="2.6" x="45.0" y="49.0"><title>2022-03-08 38.0 km</title></rect><rect fill="red" height="2.6" width="2.6" x="45.0" y="52.5"><title>2022-03-09 38.8 km</title></rect><rect fill="#ffe600" height="2.6" width="2.6" x="45.0" y="56.0"><title>2022-03-10 10.4 km</title></rect><rect fill="red" height="2.6" width="2.6" x="45.0" y="59.5"><title>2022-03-11 32.7 km</title></rect><rect fill="#ffd800" height="2.6" width="2.6" x="45.0" y="63.0"><title>2022-03-12 15.7 km</title></rect><rect fill="#ffe600" height="2.6" width="2.6" x="45.0" y="66.5"><title>2022-03-13 10.5 km</title></rect><rect fill="#ffe400" height="2.6" width="2.6" x="48.5" y="45.5"><title>2022-03-14 11.0 km</title></rect><rect fill="#444444" height="2.6" width="2.6" x="48.5" y="49.0"><title>2022-03-15</title></rect><rect fill="#444444" height="2.6" width="2.6" x="48.5" y="52.5"><title>2022-03-16</title></rect><rect fill="#444444" height="2.6" width="2.6" x="48.5" y="56.0"><title>2022-03-17</title></rect><rect fill="#444444" height="2.6" width="2.6" x="48.5" y="59.5"><title>2022-03-18</title></rect><rect fill="#444444" height="2.6" width="2.6" x="48.5" y="63.0"><title>2022-03-19</title></rect><rect fill="#444444" height="2.6" width="2.6" x="48.5" y="66.5"><title>2022-03-20</title></rect><rect fill="red" height="2.6" width="2.6" x="52.0" y="45.5"><title>2022-03-21 33.1 km</title></rect><rect fill="red" height="2.6" width="2.6" x="52.0" y="49.0"><title>2022-03-22 21.5 km</title></rect><rect fill="red" height="2.6" width="2.6" x="52.0" y="52.5"><title>2022-03-23 21.2 km</title></rect><rect fill="red" height="2.6" width="2.6" x="52.0" y="56.0"><title>2022-03-24 21.5 km</title></rect><rect fill="red" height="2.6" width="2.6" x="52.0" y="59.5"><title>2022-03-25 21.2 km</title></rect><rect fill="#444444" height="2.6" width="2.6" x="52.0" y="63.0"><title>2022-03-26</title></rect><rect fill="#444444" height="2.6" width="2.6" x="52.0" y="66.5"><title>2022-03-27</title></rect><rect fill="red" height="2.6" width="2.6" x="55.5" y="45.5"><title>2022-03-28 21.2 km</title></rect><rect fill="red" height="2.6" width="2.6" x="55.5" y="49.0"><title>2022-03-29 21.5 km</title></rect><rect fill="red" height="2.6" width="2.6" x="55.5" y="52.5"><title>2022-03-30 33.2 km</title></rect><rect fill="red" height="2.6" width="2.6" x="55.5" y="56.0"><title>2022-03-31 32.9 km</title></rect><rect fill="red" height="2.6" width="2.6" x="55.5" y="59.5"><title>2022-04-01 21.6 km</title></rect><rect fill="red" height="2.6" width="2.6" x="55.5" y="63.0"><title>2022-04-02 21.9 km</title></rect><rect fill="red" height="2.6" width="2.6" x="55.5" y="66.5"><title>2022-04-03 26.2 km</title></rect><rect fill="#444444" height="2.6" width="2.6" x="59.0" y="45.5"><title>2022-04-04</title></rect><rect fill="red" height="2.6" width="2.6" x="59.0" y="49.0"><title>2022-04-05 21.0 km</title></rect><rect fill="red" height="2.6" width="2.6" x="59.0" y="52.5"><title>2022-04-06 34.6 km</title></rect><rect fill="red" height="2.6" width="2.6" x="59.0" y="56.0"><title>2022-04-07 21.2 km</title></rect><rect fill="red" height="2.6" width="2.6" x="59.0" y="59.5"><title>2022-04-08 34.8 km</title></rect><rect fill="#444444" height="2.6" width="2.6" x="59.0" y="63.0"><title>2022-04-09</title></rect><rect fill="red" height="2.6" width="2.6" x="59.0" y="66.5"><title>2022-04-10 26.3 km</title></rect><rect fill="red" height="2.6" width="2.6" x="62.5" y="45.5"><title>2022-04-11 22.1 km</title></rect><rect fill="red" height="2.6" width="2.6" x="62.5" y="49.0"><title>2022-04-12 21.7 km</title></rect><rect fill="red" height="2.6" width="2.6" x="62.5" y="52.5"><title>2022-04-13 21.7 km</title></rect><rect fill="#ffe500" height="2.6" width="2.6" x="62.5" y="56.0"><title>2022-04-14 10.8 km</title></rect><rect fill="red" height="2.6" width="2.6" x="62.5" y="59.5"><title>2022-04-15 28.4 km</title></rect><rect fill="#444444" height="2.6" width="2.6" x="62.5" y="63.0"><title>2022-04-16</title></rect><rect fill="red" height="2.6" width="2.6" x="62.5" y="66.5"><title>2022-04-17 26.7 km</title></rect><rect fill="red" height="2.6" width="2.6" x="66.0" y="45.5"><title>2022-04-18 21.6 km</title></rect><rect fill="red" height="2.6" width="2.6" x="66.0" y="49.0"><title>2022-04-19 21.7 km</title></rect><rect fill="red" height="2.6" width="2.6" x="66.0" y="52.5"><title>2022-04-20 21.7 km</title></rect><rect fill="red" height="2.6" width="2.6" x="66.0" y="56.0"><title>2022-04-21 32.7 km</title></rect><rect fill="red" height="2.6" width="2.6" x="66.0" y="59.5"><title>2022-04-22 21.0 km</title></rect><rect fill="#ffd000" height="2.6" width="2.6" x="66.0" y="63.0"><title>2022-04-23 18.8 km</title></rect><rect fill="red" height="2.6" width="2.6" x="66.0" y="66.5"><title>2022-04-24 36.2 km</title></rect><rect fill="#ffd000" height="2.6" width="2.6" x="69.5" y="45.5"><title>2022-04-25 18.9 km</title></rect><rect fill="red" height="2.6" width="2.6" x="69.5" y="49.0"><title>2022-04-26 29.0 km</title></rect><rect fill="#ffd000" height="2.6" width="2.6" x="69.5" y="52.5"><title>2022-04-27 18.9 km</title></rect><rect fill="#ffd000" height="2.6" width="2.6" x="69.5" y="56.0"><title>2022-04-28 18.9 km</title></rect><rect fill="red" height="2.6" width="2.6" x="69.5" y="59.5"><title>2022-04-29 28.5 km</title></rect><rect fill="red" height="2.6" width="2.6" x="69.5" y="63.0"><title>2022-04-30 26.6 km</title></rect><rect fill="#444444" height="2.6" width="2.6" x="69.5" y="66.5"><title>2022-05-01</title></rect><rect fill="#ffd800" height="2.6" width="2.6" x="73.0" y="45.5"><title>2022-05-02 15.8 km</title></rect><rect fill="#444444" height="2.6" width="2.6" x="73.0" y="49.0"><title>2022-05-03</title></rect><rect fill="red" height="2.6" width="2.6" x="73.0" y="52.5"><title>2022-05-04 21.1 km</title></rect><rect fill="#ffce00" height="2.6" width="2.6" x="73.0" y="56.0"><title>2022-05-05 19.7 km</title></rect><rect fill="red" height="2.6" width="2.6" x="73.0" y="59.5"><title>2022-05-06 32.8 km</title></rect><rect fill="#ffce00" height="2.6" width="2.6" x="73.0" y="63.0"><title>2022-05-07 19.5 km</title></rect><rect fill="red" height="2.6" width="2.6" x="73.0" y="66.5"><title>2022-05-08 35.2 km</title></rect><rect fill="red" height="2.6" width="2.6" x="76.5" y="45.5"><title>2022-05-09 26.2 km</title></rect><rect fill="#ffcd00" height="2.6" width="2.6" x="76.5" y="49.0"><title>2022-05-10 19.7 km</title></rect><rect fill="red" height="2.6" width="2.6" x="76.5" y="52.5"><title>2022-05-11 28.8 km</title></rect><rect fill="#ffcf00" height="2.6" width="2.6" x="76.5" y="56.0"><title>2022-05-12 19.2 km</title></rect><rect fill="#ffd000" height="2.6" width="2.6" x="76.5" y="59.5"><title>2022-05-13 18.9 km</title></rect><rect fill="#444444" height="2.6" width="2.6" x="76.5" y="63.0"><title>2022-05-14</title></rect><rect fill="#444444" height="2.6" width="2.6" x="76.5" y="66.5"><title>2022-05-15</title></rect><rect fill="#444444" height="2.6" width="2.6" x="80.0" y="45.5"><title>2022-05-16</title></rect><rect fill="#444444" height="2.6" width="2.6" x="80.0" y="49.0"><title>2022-05-17</title></rect><rect fill="#4dd2ff" height="2.6" width="2.6" x="80.0" y="52.5"><title>2022-05-18 8.3 km</title></rect><rect fill="#444444" height="2.6" width="2.6" x="80.0" y="56.0"><title>2022-05-19</title></rect><rect fill="#4dd2ff" height="2.6" width="2.6" x="80.0" y="59.5"><title>2022-05-20 5.0 km</title></rect><rect fill="red" height="2.6" width="2.6" x="80.0" y="63.0"><title>2022-05-21 24.8 km</title></rect><rect fill="#444444" height="2.6" width="2.6" x="80.0" y="66.5"><title>2022-05-22</title></rect><rect fill="red" height="2.6" width="2.6" x="83.5" y="45.5"><title>2022-05-23 26.6 km</title></rect><rect fill="red" height="2.6" width="2.6" x="83.5" y="49.0"><title>2022-05-24 30.8 km</title></rect><rect fill="#ffd000" height="2.6" width="2.6" x="83.5" y="52.5"><title>2022-05-25 18.8 km</title></rect><rect fill="red" height="2.6" width="2.6" x="83.5" y="56.0"><title>2022-05-26 26.0 km</title></rect><rect fill="red" height="2.6" width="2.6" x="83.5" y="59.5"><title>2022-05-27 29.5 km</title></rect><rect fill="#444444" height="2.6" width="2.6" x="83.5" y="63.0"><title>2022-05-28</title></rect><rect fill="red" height="2.6" width="2.6" x="83.5" y="66.5"><title>2022-05-29 27.9 km</title></rect><rect fill="#4dd2ff" height="2.6" width="2.6" x="87.0" y="45.5"><title>2022-05-30 9.4 km</title></rect><rect fill="red" height="2.6" width="2.6" x="87.0" y="49.0"><title>2022-05-31 35.9 km</title></rect><rect fill="red" height="2.6" width="2.6" x="87.0" y="52.5"><title>2022-06-01 29.7 km</title></rect><rect fill="red" height="2.6" width="2.6" x="87.0" y="56.0"><title>2022-06-02 28.5 km</title></rect><rect fill="#ffd600" height="2.6" width="2.6" x="87.0" y="59.5"><title>2022-06-03 16.6 km</title></rect><rect fill="#444444" height="2.6" width="2.6" x="87.0" y="63.0"><title>2022-06-04</title></rect><rect fill="red" height="2.6" width="2.6" x="87.0" y="66.5"><title>2022-06-05 28.0 km</title></rect><rect fill="#ffe000" height="2.6" width="2.6" x="90.5" y="45.5"><title>2022-06-06 12.7 km</title></rect><rect fill="#ffd000" height="2.6" width="2.6" x="90.5" y="49.0"><title>2022-06-07 18.9 km</title></rect><rect fill="red" height="2.6" width="2.6" x="90.5" y="52.5"><title>2022-06-08 27.7 km</title></rect><rect fill="red" height="2.6" width="2.6" x="90.5" y="56.0"><title>2022-06-09 30.1 km</title></rect><rect fill="red" height="2.6" width="2.6" x="90.5" y="59.5"><title>2022-06-10 22.2 km</title></rect><rect fill="red" height="2.6" width="2.6" x="90.5" y="63.0"><title>2022-06-11 29.6 km</title></rect><rect fill="#444444" height="2.6" width="2.6" x="90.5" y="66.5"><title>2022-06-12</title></rect><rect fill="red" height="2.6" width="2.6" x="94.0" y="45.5"><title>2022-06-13 35.7 km</title></rect><rect fill="#ffd000" height="2.6" width="2.6" x="94.0" y="49.0"><title>2022-06-14 18.8 km</title></rect><rect fill="red" height="2.6" width="2.6" x="94.0" y="52.5"><title>2022-06-15 25.9 km</title></rect><rect fill="red" height="2.6" width="2.6" x="94.0" y="56.0"><title>2022-06-16 29.1 km</title></rect><rect fill="red" height="2.6" width="2.6" x="94.0" y="59.5"><title>2022-06-17 27.3 km</title></rect><rect fill="red" height="2.6" width="2.6" x="94.0" y="63.0"><title>2022-06-18 24.6 km</title></rect><rect fill="#444444" height="2.6" width="2.6" x="94.0" y="66.5"><title>2022-06-19</title></rect><rect fill="red" height="2.6" width="2.6" x="97.5" y="45.5"><title>2022-06-20 38.6 km</title></rect><rect fill="#ffcf00" height="2.6" width="2.6" x="97.5" y="49.0"><title>2022-06-21 19.1 km</title></rect><rect fill="#ffcf00" height="2.6" width="2.6" x="97.5" y="52.5"><title>2022-06-22 19.1 km</title></rect><rect fill="#ffcf00" height="2.6" width="2.6" x="97.5" y="56.0"><title>2022-06-23 19.1 km</title></rect><rect fill="red" height="2.6" width="2.6" x="97.5" y="59.5"><title>2022-06-24 39.2 km</title></rect><rect fill="#444444" height="2.6" width="2.6" x="97.5" y="63.0"><title>2022-06-25</title></rect><rect fill="red" height="2.6" width="2.6" x="97.5" y="66.5"><title>2022-06-26 23.5 km</title></rect><rect fill="red" height="2.6" width="2.6" x="101.0" y="45.5"><title>2022-06-27 30.6 km</title></rect><rect fill="#ffcf00" height="2.6" width="2.6" x="101.0" y="49.0"><title>2022-06-28 19.1 km</title></rect><rect fill="red" height="2.6" width="2.6" x="101.0" y="52.5"><title>2022-06-29 27.8 km</title></rect><rect fill="#ffcf00" height="2.6" width="2.6" x="101.0" y="56.0"><title>2022-06-30 19.1 km</title></rect><rect fill="red" height="2.6" width="2.6" x="101.0" y="59.5"><title>2022-07-01 27.2 km</title></rect><rect fill="#444444" height="2.6" width="2.6" x="101.0" y="63.0"><title>2022-07-02</title></rect><rect fill="#444444" height="2.6" width="2.6" x="101.0" y="66.5"><title>2022-07-03</title></rect><rect fill="red" height="2.6" width="2.6" x="104.5" y="45.5"><title>2022-07-04 33.4 km</title></rect><rect fill="red" height="2.6" width="2.6" x="104.5" y="49.0"><title>2022-07-05 30.8 km</title></rect><rect fill="#ffd500" height="2.6" width="2.6" x="104.5" y="52.5"><title>2022-07-06 16.9 km</title></rect><rect fill="red" height="2.6" width="2.6" x="104.5" y="56.0"><title>2022-07-07 25.8 km</title></rect><rect fill="#ffd600" height="2.6" width="2.6" x="104.5" y="59.5"><title>2022-07-08 16.5 km</title></rect><rect fill="#4dd2ff" height="2.6" width="2.6" x="104.5" y="63.0"><title>2022-07-09 6.3 km</title></rect><rect fill="#ffcf00" height="2.6" width="2.6" x="104.5" y="66.5"><title>2022-07-10 19.3 km</title></rect><rect fill="#ffcf00" height="2.6" width="2.6" x="108.0" y="45.5"><title>2022-07-11 19.1 km</title></rect><rect fill="red" height="2.6" width="2.6" x="108.0" y="49.0"><title>2022-07-12 27.5 km</title></rect><rect fill="red" height="2.6" width="2.6" x="108.0" y="52.5"><title>2022-07-13 27.9 km</title></rect><rect fill="red" height="2.6" width="2.6" x="108.0" y="56.0"><title>2022-07-14 27.3 km</title></rect><rect fill="red" height="2.6" width="2.6" x="108.0" y="59.5"><title>2022-07-15 44.9 km</title></rect><rect fill="red" height="2.6" width="2.6" x="108.0" y="63.0"><title>2022-07-16 98.2 km</title></rect><rect fill="#4dd2ff" height="2.6" width="2.6" x="108.0" y="66.5"><title>2022-07-17 6.3 km</title></rect><rect fill="#ffcf00" height="2.6" width="2.6" x="111.5" y="45.5"><title>2022-07-18 19.0 km</title></rect><rect fill="red" height="2.6" width="2.6" x="111.5" y="49.0"><title>2022-07-19 29.4 km</title></rect><rect fill="red" height="2.6" width="2.6" x="111.5" y="52.5"><title>2022-07-20 31.0 km</title></rect><rect fill="red" height="2.6" width="2.6" x="111.5" y="56.0"><title>2022-07-21 32.0 km</title></rect><rect fill="#ffcf00" height="2.6" width="2.6" x="111.5" y="59.5"><title>2022-07-22 19.0 km</title></rect><rect fill="#444444" height="2.6" width="2.6" x="111.5" y="63.0"><title>2022-07-23</title></rect><rect fill="#444444" height="2.6" width="2.6" x="111.5" y="66.5"><title>2022-07-24</title></rect><rect fill="red" height="2.6" width="2.6" x="115.0" y="45.5"><title>2022-07-25 20.6 km</title></rect><rect fill="red" height="2.6" width="2.6" x="115.0" y="49.0"><title>2022-07-26 21.0 km</title></rect><rect fill="red" height="2.6" width="2.6" x="115.0" y="52.5"><title>2022-07-27 23.7 km</title></rect><rect fill="red" height="2.6" width="2.6" x="115.0" y="56.0"><title>2022-07-28 41.8 km</title></rect><rect fill="red" height="2.6" width="2.6" x="115.0" y="59.5"><title>2022-07-29 40.9 km</title></rect><rect fill="#444444" height="2.6" width="2.6" x="115.0" y="63.0"><title>2022-07-30</title></rect><rect fill="#ffdf00" height="2.6" width="2.6" x="115.0" y="66.5"><title>2022-07-31 12.9 km</title></rect><rect fill="#4dd2ff" height="2.6" width="2.6" x="118.5" y="45.5"><title>2022-08-01 2.9 km</title></rect><rect fill="red" height="2.6" width="2.6" x="118.5" y="49.0"><title>2022-08-02 20.5 km</title></rect><rect fill="red" height="2.6" width="2.6" x="118.5" y="52.5"><title>2022-08-03 20.5 km</title></rect><rect fill="#ffd200" height="2.6" width="2.6" x="118.5" y="56.0"><title>2022-08-04 17.9 km</title></rect><rect fill="#ffcd00" height="2.6" width="2.6" x="118.5" y="59.5"><title>2022-08-05 19.8 km</title></rect><rect fill="#4dd2ff" height="2.6" width="2.6" x="118.5" y="63.0"><title>2022-08-06 9.8 km</title></rect><rect fill="red" height="2.6" width="2.6" x="118.5" y="66.5"><title>2022-08-07 21.1 km</title></rect><rect fill="red" height="2.6" width="2.6" x="122.0" y="45.5"><title>2022-08-08 20.4 km</title></rect><rect fill="red" height="2.6" width="2.6" x="122.0" y="49.0"><title>2022-08-09 20.5 km</title></rect><rect fill="red" height="2.6" width="2.6" x="122.0" y="52.5"><title>2022-08-10 33.2 km</title></rect><rect fill="#ffe500" height="2.6" width="2.6" x="122.0" y="56.0"><title>2022-08-11 10.7 km</title></rect><rect fill="#444444" height="2.6" width="2.6" x="122.0" y="59.5"><title>2022-08-12</title></rect><rect fill="red" height="2.6" width="2.6" x="122.0" y="63.0"><title>2022-08-13 46.9 km</title></rect><rect fill="#ffdb00" height="2.6" width="2.6" x="122.0" y="66.5"><title>2022-08-14 14.6 km</title></rect><rect fill="red" height="2.6" width="2.6" x="125.5" y="45.5"><title>2022-08-15 30.7 km</title></rect><rect fill="red" height="2.6" width="2.6" x="125.5" y="49.0"><title>2022-08-16 31.5 km</title></rect><rect fill="red" height="2.6" width="2.6" x="125.5" y="52.5"><title>2022-08-17 31.3 km</title></rect><rect fill="#ffcf00" height="2.6" width="2.6" x="125.5" y="56.0"><title>2022-08-18 19.2 km</title></rect><rect fill="red" height="2.6" width="2.6" x="125.5" y="59.5"><title>2022-08-19 33.1 km</title></rect><rect fill="red" height="2.6" width="2.6" x="125.5" y="63.0"><title>2022-08-20 20.3 km</title></rect><rect fill="red" height="2.6" width="2.6" x="125.5" y="66.5"><title>2022-08-21 27.6 km</title></rect><rect fill="red" height="2.6" width="2.6" x="129.0" y="45.5"><title>2022-08-22 32.3 km</title></rect><rect fill="red" height="2.6" width="2.6" x="129.0" y="49.0"><title>2022-08-23 34.2 km</title></rect><rect fill="red" height="2.6" width="2.6" x="129.0" y="52.5"><title>2022-08-24 36.3 km</title></rect><rect fill="red" height="2.6" width="2.6" x="129.0" y="56.0"><title>2022-08-25 21.1 km</title></rect><rect fill="red" height="2.6" width="2.6" x="129.0" y="59.5"><title>2022-08-26 21.2 km</title></rect><rect fill="red" height="2.6" width="2.6" x="129.0" y="63.0"><title>2022-08-27 37.3 km</title></rect><rect fill="#444444" height="2.6" width="2.6" x="129.0" y="66.5"><title>2022-08-28</title></rect><rect fill="red" height="2.6" width="2.6" x="132.5" y="45.5"><title>2022-08-29 32.0 km</title></rect><rect fill="red" height="2.6" width="2.6" x="132.5" y="49.0"><title>2022-08-30 35.6 km</title></rect><rect fill="red" height="2.6" width="2.6" x="132.5" y="52.5"><title>2022-08-31 21.3 km</title></rect><rect fill="red" height="2.6" width="2.6" x="132.5" y="56.0"><title>2022-09-01 21.8 km</title></rect><rect fill="#ffe500" height="2.6" width="2.6" x="132.5" y="59.5"><title>2022-09-02 10.6 km</title></rect><rect fill="#444444" height="2.6" width="2.6" x="132.5" y="63.0"><title>2022-09-03</title></rect><rect fill="#4dd2ff" height="2.6" width="2.6" x="132.5" y="66.5"><title>2022-09-04 0.8 km</title></rect><rect fill="red" height="2.6" width="2.6" x="136.0" y="45.5"><title>2022-09-05 20.4 km</title></rect><rect fill="red" height="2.6" width="2.6" x="136.0" y="49.0"><title>2022-09-06 21.0 km</title></rect><rect fill="red" height="2.6" width="2.6" x="136.0" y="52.5"><title>2022-09-07 20.3 km</title></rect><rect fill="red" height="2.6" width="2.6" x="136.0" y="56.0"><title>2022-09-08 21.0 km</title></rect><rect fill="red" height="2.6" width="2.6" x="136.0" y="59.5"><title>2022-09-09 23.8 km</title></rect><rect fill="#444444" height="2.6" width="2.6" x="136.0" y="63.0"><title>2022-09-10</title></rect><rect fill="#4dd2ff" height="2.6" width="2.6" x="136.0" y="66.5"><title>2022-09-11 7.7 km</title></rect><rect fill="#444444" height="2.6" width="2.6" x="139.5" y="45.5"><title>2022-09-12</title></rect><rect fill="#ffcf00" height="2.6" width="2.6" x="139.5" y="49.0"><title>2022-09-13 19.3 km</title></rect><rect fill="red" height="2.6" width="2.6" x="139.5" y="52.5"><title>2022-09-14 20.9 km</title></rect><rect fill="red" height="2.6" width="2.6" x="139.5" y="56.0"><title>2022-09-15 20.1 km</title></rect><rect fill="#ffcf00" height="2.6" width="2.6" x="139.5" y="59.5"><title>2022-09-16 19.0 km</title></rect><rect fill="#444444" height="2.6" width="2.6" x="139.5" y="63.0"><title>2022-09-17</title></rect><rect fill="#4dd2ff" height="2.6" width="2.6" x="139.5" y="66.5"><title>2022-09-18 3.5 km</title></rect><rect fill="red" height="2.6" width="2.6" x="143.0" y="45.5"><title>2022-09-19 22.3 km</title></rect><rect fill="#ffcf00" height="2.6" width="2.6" x="143.0" y="49.0"><title>2022-09-20 19.0 km</title></rect><rect fill="#ffe600" height="2.6" width="2.6" x="143.0" y="52.5"><title>2022-09-21 10.3 km</title></rect><rect fill="#ffcf00" height="2.6" width="2.6" x="143.0" y="56.0"><title>2022-09-22 19.1 km</title></rect><rect fill="red" height="2.6" width="2.6" x="143.0" y="59.5"><title>2022-09-23 28.8 km</title></rect><rect fill="#4dd2ff" height="2.6" width="2.6" x="143.0" y="63.0"><title>2022-09-24 6.7 km</title></rect><rect fill="#444444" height="2.6" width="2.6" x="143.0" y="66.5"><title>2022-09-25</title></rect><rect fill="red" height="2.6" width="2.6" x="146.5" y="45.5"><title>2022-09-26 22.3 km</title></rect><rect fill="#ffcf00" height="2.6" width="2.6" x="146.5" y="49.0"><title>2022-09-27 19.0 km</title></rect><rect fill="#ffd000" height="2.6" width="2.6" x="146.5" y="52.5"><title>2022-09-28 18.6 km</title></rect><rect fill="#ffcf00" height="2.6" width="2.6" x="146.5" y="56.0"><title>2022-09-29 19.1 km</title></rect><rect fill="#ffd000" height="2.6" width="2.6" x="146.5" y="59.5"><title>2022-09-30 18.6 km</title></rect><rect fill="#444444" height="2.6" width="2.6" x="146.5" y="63.0"><title>2022-10-01</title></rect><rect fill="#444444" height="2.6" width="2.6" x="146.5" y="66.5"><title>2022-10-02</title></rect><rect fill="#444444" height="2.6" width="2.6" x="150.0" y="45.5"><title>2022-10-03</title></rect><rect fill="#444444" height="2.6" width="2.6" x="150.0" y="49.0"><title>2022-10-04</title></rect><rect fill="#4dd2ff" height="2.6" width="2.6" x="150.0" y="52.5"><title>2022-10-05 6.7 km</title></rect><rect fill="#444444" height="2.6" width="2.6" x="150.0" y="56.0"><title>2022-10-06</title></rect><rect fill="#444444" height="2.6" width="2.6" x="150.0" y="59.5"><title>2022-10-07</title></rect><rect fill="#4dd2ff" height="2.6" width="2.6" x="150.0" y="63.0"><title>2022-10-08 9.4 km</title></rect><rect fill="#ffd000" height="2.6" width="2.6" x="150.0" y="66.5"><title>2022-10-09 18.9 km</title></rect><rect fill="#ffd000" height="2.6" width="2.6" x="153.5" y="45.5"><title>2022-10-10 18.8 km</title></rect><rect fill="#ffce00" height="2.6" width="2.6" x="153.5" y="49.0"><title>2022-10-11 19.4 km</title></rect><rect fill="#ffd000" height="2.6" width="2.6" x="153.5" y="52.5"><title>2022-10-12 18.8 km</title></rect><rect fill="#ffce00" height="2.6" width="2.6" x="153.5" y="56.0"><title>2022-10-13 19.6 km</title></rect><rect fill="red" height="2.6" width="2.6" x="153.5" y="59.5"><title>2022-10-14 20.9 km</title></rect><rect fill="#444444" height="2.6" width="2.6" x="153.5" y="63.0"><title>2022-10-15</title></rect><rect fill="#444444" height="2.6" width="2.6" x="153.5" y="66.5"><title>2022-10-16</title></rect><rect fill="#ffcf00" height="2.6" width="2.6" x="157.0" y="45.5"><title>2022-10-17 19.1 km</title></rect><rect fill="red" height="2.6" width="2.6" x="157.0" y="49.0"><title>2022-10-18 21.4 km</title></rect><rect fill="red" height="2.6" width="2.6" x="157.0" y="52.5"><title>2022-10-19 20.7 km</title></rect><rect fill="red" height="2.6" width="2.6" x="157.0" y="56.0"><title>2022-10-20 20.7 km</title></rect><rect fill="#ffce00" height="2.6" width="2.6" x="157.0" y="59.5"><title>2022-10-21 19.6 km</title></rect><rect fill="#444444" height="2.6" width="2.6" x="157.0" y="63.0"><title>2022-10-22</title></rect><rect fill="#444444" height="2.6" width="2.6" x="157.0" y="66.5"><title>2022-10-23</title></rect><rect fill="red" height="2.6" width="2.6" x="160.5" y="45.5"><title>2022-10-24 26.2 km</title></rect><rect fill="#ffd000" height="2.6" width="2.6" x="160.5" y="49.0"><title>2022-10-25 18.8 km</title></rect><rect fill="#444444" height="2.6" width="2.6" x="160.5" y="52.5"><title>2022-10-26</title></rect><rect fill="#ffd000" height="2.6" width="2.6" x="160.5" y="56.0"><title>2022-10-27 18.8 km</title></rect><rect fill="#ffd000" height="2.6" width="2.6" x="160.5" y="59.5"><title>2022-10-28 18.6 km</title></rect><rect fill="#4dd2ff" height="2.6" width="2.6" x="160.5" y="63.0"><title>2022-10-29 6.6 km</title></rect><rect fill="#444444" height="2.6" width="2.6" x="160.5" y="66.5"><title>2022-10-30</title></rect><rect fill="#ffd000" height="2.6" width="2.6" x="164.0" y="45.5"><title>2022-10-31 18.6 km</title></rect><rect fill="#444444" height="2.6" width="2.6" x="164.0" y="49.0"><title>2022-11-01</title></rect><rect fill="#444444" height="2.6" width="2.6" x="164.0" y="52.5"><title>2022-11-02</title></rect><rect fill="#444444" height="2.6" width="2.6" x="164.0" y="56.0"><title>2022-11-03</title></rect><rect fill="#444444" height="2.6" width="2.6" x="164.0" y="59.5"><title>2022-11-04</title></rect><rect fill="#444444" height="2.6" width="2.6" x="164.0" y="63.0"><title>2022-11-05</title></rect><rect fill="#444444" height="2.6" width="2.6" x="164.0" y="66.5"><title>2022-11-06</title></rect><rect fill="#444444" height="2.6" width="2.6" x="167.5" y="45.5"><title>2022-11-07</title></rect><rect fill="#444444" height="2.6" width="2.6" x="167.5" y="49.0"><title>2022-11-08</title></rect><rect fill="#444444" height="2.6" width="2.6" x="167.5" y="52.5"><title>2022-11-09</title></rect><rect fill="#444444" height="2.6" width="2.6" x="167.5" y="56.0"><title>2022-11-10</title></rect><rect fill="#444444" height="2.6" width="2.6" x="167.5" y="59.5"><title>2022-11-11</title></rect><rect fill="#444444" height="2.6" width="2.6" x="167.5" y="63.0"><title>2022-11-12</title></rect><rect fill="#444444" height="2.6" width="2.6" x="167.5" y="66.5"><title>2022-11-13</title></rect><rect fill="#444444" height="2.6" width="2.6" x="171.0" y="45.5"><title>2022-11-14</title></rect><rect fill="#444444" height="2.6" width="2.6" x="171.0" y="49.0"><title>2022-11-15</title></rect><rect fill="#444444" height="2.6" width="2.6" x="171.0" y="52.5"><title>2022-11-16</title></rect><rect fill="#444444" height="2.6" width="2.6" x="171.0" y="56.0"><title>2022-11-17</title></rect><rect fill="#444444" height="2.6" width="2.6" x="171.0" y="59.5"><title>2022-11-18</title></rect><rect fill="#444444" height="2.6" width="2.6" x="171.0" y="63.0"><title>2022-11-19</title></rect><rect fill="#4dd2ff" height="2.6" width="2.6" x="171.0" y="66.5"><title>2022-11-20 3.0 km</title></rect><rect fill="#444444" height="2.6" width="2.6" x="174.5" y="45.5"><title>2022-11-21</title></rect><rect fill="#444444" height="2.6" width="2.6" x="174.5" y="49.0"><title>2022-11-22</title></rect><rect fill="#444444" height="2.6" width="2.6" x="174.5" y="52.5"><title>2022-11-23</title></rect><rect fill="#444444" height="2.6" width="2.6" x="174.5" y="56.0"><title>2022-11-24</title></rect><rect fill="#444444" height="2.6" width="2.6" x="174.5" y="59.5"><title>2022-11-25</title></rect><rect fill="#444444" height="2.6" width="2.6" x="174.5" y="63.0"><title>2022-11-26</title></rect><rect fill="#444444" height="2.6" width="2.6" x="174.5" y="66.5"><title>2022-11-27</title></rect><rect fill="#444444" height="2.6" width="2.6" x="178.0" y="45.5"><title>2022-11-28</title></rect><rect fill="#444444" height="2.6" width="2.6" x="178.0" y="49.0"><title>2022-11-29</title></rect><rect fill="#444444" height="2.6" width="2.6" x="178.0" y="52.5"><title>2022-11-30</title></rect><rect fill="#444444" height="2.6" width="2.6" x="178.0" y="56.0"><title>2022-12-01</title></rect><rect fill="#444444" height="2.6" width="2.6" x="178.0" y="59.5"><title>2022-12-02</title></rect><rect fill="#444444" height="2.6" width="2.6" x="178.0" y="63.0"><title>2022-12-03</title></rect><rect fill="#444444" height="2.6" width="2.6" x="178.0" y="66.5"><title>2022-12-04</title></rect><rect fill="#444444" height="2.6" width="2.6" x="181.5" y="45.5"><title>2022-12-05</title></rect><rect fill="#444444" height="2.6" width="2.6" x="181.5" y="49.0"><title>2022-12-06</title></rect><rect fill="#444444" height="2.6" width="2.6" x="181.5" y="52.5"><title>2022-12-07</title></rect><rect fill="#4dd2ff" height="2.6" width="2.6" x="181.5" y="56.0"><title>2022-12-08 2.2 km</title></rect><rect fill="#444444" height="2.6" width="2.6" x="181.5" y="59.5"><title>2022-12-09</title></rect><rect fill="#4dd2ff" height="2.6" width="2.6" x="181.5" y="63.0"><title>2022-12-10 6.4 km</title></rect><rect fill="#4dd2ff" height="2.6" width="2.6" x="181.5" y="66.5"><title>2022-12-11 7.3 km</title></rect><rect fill="#444444" height="2.6" width="2.6" x="185.0" y="45.5"><title>2022-12-12</title></rect><rect fill="#4dd2ff" height="2.6" width="2.6" x="185.0" y="49.0"><title>2022-12-13 7.7 km</title></rect><rect fill="#444444" height="2.6" width="2.6" x="185.0" y="52.5"><title>2022-12-14</title></rect><rect fill="#444444" height="2.6" width="2.6" x="185.0" y="56.0"><title>2022-12-15</title></rect><rect fill="#444444" height="2.6" width="2.6" x="185.0" y="59.5"><title>2022-12-16</title></rect><rect fill="#444444" height="2.6" width="2.6" x="185.0" y="63.0"><title>2022-12-17</title></rect><rect fill="red" height="2.6" width="2.6" x="185.0" y="66.5"><title>2022-12-18 21.2 km</title></rect><rect fill="#444444" height="2.6" width="2.6" x="188.5" y="45.5"><title>2022-12-19</title></rect><rect fill="#444444" height="2.6" width="2.6" x="188.5" y="49.0"><title>2022-12-20</title></rect><rect fill="#444444" height="2.6" width="2.6" x="188.5" y="52.5"><title>2022-12-21</title></rect><rect fill="#444444" height="2.6" width="2.6" x="188.5" y="56.0"><title>2022-12-22</title></rect><rect fill="#444444" height="2.6" width="2.6" x="188.5" y="59.5"><title>2022-12-23</title></rect><rect fill="#444444" height="2.6" width="2.6" x="188.5" y="63.0"><title>2022-12-24</title></rect><rect fill="#444444" height="2.6" width="2.6" x="188.5" y="66.5"><title>2022-12-25</title></rect><rect fill="#444444" height="2.6" width="2.6" x="192.0" y="45.5"><title>2022-12-26</title></rect><rect fill="#444444" height="2.6" width="2.6" x="192.0" y="49.0"><title>2022-12-27</title></rect><rect fill="#444444" height="2.6" width="2.6" x="192.0" y="52.5"><title>2022-12-28</title></rect><rect fill="#444444" height="2.6" width="2.6" x="192.0" y="56.0"><title>2022-12-29</title></rect><rect fill="#444444" height="2.6" width="2.6" x="192.0" y="59.5"><title>2022-12-30</title></rect><rect fill="#444444" height="2.6" width="2.6" x="192.0" y="63.0"><title>2022-12-31</title></rect></svg>